<?xml version="1.0" standalone="no"?>
<!DOCTYPE svg PUBLIC "-//W3C//DTD SVG 1.1//EN" "http://www.w3.org/Graphics/SVG/1.1/DTD/svg11.dtd" >
<svg xmlns="http://www.w3.org/2000/svg" xmlns:xlink="http://www.w3.org/1999/xlink" version="1.1">
<metadata>
Created by FontForge 20170731 at Fri Sep 12 16:00:30 2008
 By Aleksey,,,
Copyright (C) 2001, 2008 Hoefler &#38; Frere-Jones. http://www.typography.com
</metadata>
<defs>
<font id="GothamNarrow-XLight" horiz-adv-x="502" >
  <font-face 
    font-family="Gotham Narrow XLight"
    font-weight="275"
    font-stretch="condensed"
    units-per-em="1000"
    panose-1="0 0 0 0 0 0 0 0 0 0"
    ascent="800"
    descent="-200"
    x-height="511"
    cap-height="700"
    bbox="-16 -200 995 955"
    underline-thickness="50"
    underline-position="-300"
    unicode-range="U+0020-FB04"
  />
<missing-glyph 
d="M1 -200v1000h500v-1000h-500zM72 750l179 -390l179 390h-358zM51 -76l172 376l-172 376v-752zM451 676l-172 -376l172 -376v752zM251 240l-179 -390h358z" />
    <glyph glyph-name="f_f" unicode="ff" horiz-adv-x="588" 
d="M109 0v482h-69v29h69v64q0 79 38 117q32 32 89 32q30 0 56 -9v-30q-30 10 -56 10q-96 0 -96 -122v-62h149v-29h-149v-482h-31zM403 0v482h-70v29h70v64q0 79 38 117q31 32 88 32q32 0 56 -9v-30q-28 10 -56 10q-95 0 -95 -122v-62h148v-29h-148v-482h-31z" />
    <glyph glyph-name="fi" unicode="fi" horiz-adv-x="497" 
d="M109 0v482h-69v29h69v64q0 79 38 117q32 32 89 32q30 0 56 -9v-30q-30 10 -56 10q-96 0 -96 -122v-62h149v-29h-149v-482h-31zM380 0v511h31v-511h-31zM376 644v61h39v-61h-39z" />
    <glyph glyph-name="fl" unicode="fl" horiz-adv-x="497" 
d="M109 0v482h-69v29h69v64q0 79 38 117q32 32 89 32q30 0 56 -9v-30q-30 10 -56 10q-96 0 -96 -122v-62h149v-29h-149v-482h-31zM380 0v722h31v-722h-31z" />
    <glyph glyph-name="f_f_i" unicode="ffi" horiz-adv-x="791" 
d="M109 0v482h-69v29h69v64q0 79 38 117q32 32 89 32q30 0 56 -9v-30q-30 10 -56 10q-96 0 -96 -122v-62h149v-29h-149v-482h-31zM403 0v482h-70v29h70v64q0 79 38 117q31 32 88 32q32 0 56 -9v-30q-28 10 -56 10q-95 0 -95 -122v-62h148v-29h-148v-482h-31zM674 0v511h31
v-511h-31zM669 644v61h40v-61h-40z" />
    <glyph glyph-name="f_f_l" unicode="ffl" horiz-adv-x="791" 
d="M109 0v482h-69v29h69v64q0 79 38 117q32 32 89 32q30 0 56 -9v-30q-30 10 -56 10q-96 0 -96 -122v-62h149v-29h-149v-482h-31zM403 0v482h-70v29h70v64q0 79 38 117q31 32 88 32q32 0 56 -9v-30q-28 10 -56 10q-95 0 -95 -122v-62h148v-29h-148v-482h-31zM674 0v722h31
v-722h-31z" />
    <glyph glyph-name=".notdef" 
d="M1 -200v1000h500v-1000h-500zM72 750l179 -390l179 390h-358zM51 -76l172 376l-172 376v-752zM451 676l-172 -376l172 -376v752zM251 240l-179 -390h358z" />
    <glyph glyph-name=".null" horiz-adv-x="0" 
 />
    <glyph glyph-name="nonmarkingreturn" horiz-adv-x="333" 
 />
    <glyph glyph-name="space" unicode=" " horiz-adv-x="248" 
 />
    <glyph glyph-name="exclam" unicode="!" horiz-adv-x="200" 
d="M92 183l-10 432v85h36v-85l-10 -432h-16zM77 0v65h46v-65h-46z" />
    <glyph glyph-name="quotedbl" unicode="&#x22;" horiz-adv-x="308" 
d="M193 450l24 250h40v-5l-46 -245h-18zM58 450l24 250h39v-5l-45 -245h-18z" />
    <glyph glyph-name="numbersign" unicode="#" horiz-adv-x="583" 
d="M508 225v-30h-114l-27 -195h-29l27 195h-193l-27 -195h-29l27 195h-102v30h106l36 255h-108v29h112l28 191h29l-27 -191h193l27 191h29l-27 -191h102v-29h-106l-37 -255h110zM213 480l-36 -255h192l36 255h-192z" />
    <glyph glyph-name="dollar" unicode="$" horiz-adv-x="534" 
d="M456 629l-20 -25q-69 62 -153 67v-301q101 -33 145.5 -77t44.5 -113v-1q0 -77 -53 -128t-137 -53v-96h-29v97q-120 6 -206 94l22 24q79 -82 185 -89v318q-96 30 -139.5 72t-43.5 112v1q0 70 51 118t131 52v60h29v-61q96 -5 173 -71zM441 179q0 58 -36 94t-122 64v-310
q71 2 114.5 44.5t43.5 106.5v1zM104 531q0 -57 35 -91.5t116 -60.5v293q-68 -3 -109.5 -42t-41.5 -97v-2z" />
    <glyph glyph-name="percent" unicode="%" horiz-adv-x="708" 
d="M183 356q-60 0 -98 50t-38 124v4q0 73 38.5 123t98.5 50t98 -50t38 -123v-4q0 -74 -38 -124t-99 -50zM183 679q-46 0 -75.5 -41t-29.5 -104v-3q0 -63 30.5 -105t75.5 -42q46 0 75.5 41t29.5 104v4q0 63 -30 104.5t-76 41.5zM342 356l221 344h33l-232 -358l-219 -342h-32z
M524 -7q-59 0 -97.5 49.5t-38.5 123.5v4q0 74 38.5 124t98.5 50t98.5 -50t38.5 -124v-4q0 -74 -38.5 -123.5t-99.5 -49.5zM525 21q46 0 75.5 41t29.5 104v3q0 64 -30 105.5t-76 41.5t-75 -41.5t-29 -103.5v-4q0 -63 30 -104.5t75 -41.5z" />
    <glyph glyph-name="ampersand" unicode="&#x26;" horiz-adv-x="592" 
d="M538 -10l-101 122q-89 -121 -207 -121q-81 0 -133 52.5t-52 128.5v3q0 70 43 121t121 94q-82 102 -82 174v3q0 59 41.5 101.5t107.5 42.5q62 0 101.5 -41.5t39.5 -97.5v-3q0 -57 -38.5 -101t-121.5 -86l178 -218q43 71 77 182l29 -10q-38 -122 -85 -197l107 -130z
M239 404q76 37 110.5 76t34.5 89v2q0 45 -30.5 78t-78.5 33q-51 0 -83.5 -33.5t-32.5 -80.5v-2q0 -66 80 -162zM231 20q106 0 186 115l-190 233q-149 -76 -149 -191v-3q0 -65 42.5 -109.5t110.5 -44.5z" />
    <glyph glyph-name="quotesingle" unicode="'" horiz-adv-x="169" 
d="M58 450l24 250h39v-5l-45 -245h-18z" />
    <glyph glyph-name="parenleft" unicode="(" horiz-adv-x="350" 
d="M294 -135q-113 72 -174 179t-61 244t61 244t174 179l15 -22q-216 -140 -216 -401t216 -401z" />
    <glyph glyph-name="parenright" unicode=")" horiz-adv-x="350" 
d="M56 -135l-14 22q216 141 216 401t-216 401l14 22q113 -72 174 -179t61 -244t-61 -244t-174 -179z" />
    <glyph glyph-name="asterisk" unicode="*" horiz-adv-x="381" 
d="M176 414l7 131l-104 -70l-16 25l113 58l-113 58l15 26l105 -70l-7 130h29l-7 -130l104 70l16 -26l-114 -58l114 -58l-16 -25l-104 70l7 -131h-29z" />
    <glyph glyph-name="plus" unicode="+" horiz-adv-x="523" 
d="M246 143v194h-188v30h188v194h31v-194h188v-30h-188v-194h-31z" />
    <glyph glyph-name="comma" unicode="," horiz-adv-x="167" 
d="M53 -87l-9 18q40 19 37 69h-21v65h47v-59q0 -40 -12.5 -60.5t-41.5 -32.5z" />
    <glyph glyph-name="hyphen" unicode="-" horiz-adv-x="353" 
d="M61 280v33h231v-33h-231z" />
    <glyph glyph-name="period" unicode="." horiz-adv-x="168" 
d="M61 0v65h46v-65h-46z" />
    <glyph glyph-name="slash" unicode="/" horiz-adv-x="411" 
d="M-12 -119l390 908h32l-391 -908h-31z" />
    <glyph glyph-name="zero" unicode="0" horiz-adv-x="603" 
d="M301 -11q-111 0 -176.5 99.5t-65.5 257.5v7q0 158 66 258t177 100t176 -99.5t65 -258.5v-6q0 -158 -65.5 -258t-176.5 -100zM302 19q95 0 151.5 92t56.5 235v6q0 143 -57 236t-152 93t-151.5 -92t-56.5 -235v-7q0 -142 57 -235t152 -93z" />
    <glyph glyph-name="one" unicode="1" horiz-adv-x="283" 
d="M150 0v666l-114 -50l-7 30l127 58h26v-704h-32z" />
    <glyph glyph-name="two" unicode="2" horiz-adv-x="497" 
d="M38 0v22l255 299q62 71 86 118t24 94q0 64 -42.5 105t-108.5 41q-107 0 -175 -111l-26 16q75 126 203 126q81 0 132.5 -50t51.5 -124v-2q0 -55 -26.5 -105t-96.5 -129l-228 -269h358v-31h-407z" />
    <glyph glyph-name="three" unicode="3" horiz-adv-x="483" 
d="M227 -10q-123 0 -202 95l23 23q72 -88 180 -88q72 0 122 47.5t50 120.5v2q0 80 -58.5 121.5t-156.5 43.5h-18l-7 20l222 294h-330v31h373v-24l-221 -292q103 -6 166 -54t63 -138v-3q0 -87 -60 -143t-146 -56z" />
    <glyph glyph-name="four" unicode="4" horiz-adv-x="543" 
d="M381 0v174h-339l-7 23l349 508h28v-502h96v-29h-96v-174h-31zM74 203h307v445z" />
    <glyph glyph-name="five" unicode="5" horiz-adv-x="509" 
d="M242 -10q-55 0 -105.5 24t-86.5 62l22 24q76 -80 172 -80q79 0 130 53.5t51 136.5v2q0 81 -50.5 128t-126.5 47q-72 0 -142 -36l-23 14l19 335h323v-31h-294l-16 -282q67 31 136 31q89 0 148 -55.5t59 -148.5v-2q0 -98 -60.5 -160t-155.5 -62z" />
    <glyph glyph-name="six" unicode="6" horiz-adv-x="543" 
d="M283 -11q-88 0 -144 58q-79 79 -79 271v10q0 175 65.5 278.5t179.5 103.5q85 0 158 -62l-20 -26q-64 58 -139 58q-99 0 -155.5 -97.5t-56.5 -259.5v-39q19 68 72 106.5t120 38.5q88 0 147.5 -58t59.5 -153v-2q0 -96 -59.5 -161.5t-148.5 -65.5zM284 19q75 0 124 57.5
t49 138.5v2q0 83 -49.5 133t-125.5 50q-73 0 -124.5 -51.5t-51.5 -130.5v-3q0 -82 50.5 -139t127.5 -57z" />
    <glyph glyph-name="seven" unicode="7" horiz-adv-x="474" 
d="M123 0l279 669h-352v31h387v-24l-279 -676h-35z" />
    <glyph glyph-name="eight" unicode="8" horiz-adv-x="533" 
d="M267 -10q-97 0 -158 53.5t-61 136.5v4q0 65 41 112t106 65q-56 19 -90.5 62t-34.5 104v3q0 79 57.5 129.5t139.5 50.5t139 -50.5t57 -129.5v-3q0 -61 -34.5 -104t-90.5 -62q65 -19 106 -66t41 -111v-4q0 -83 -61 -136.5t-157 -53.5zM267 375q69 0 116 44t47 108v3
q0 65 -47 107.5t-117 42.5t-116.5 -42t-46.5 -108v-2q0 -64 47.5 -108.5t116.5 -44.5zM267 20q84 0 134.5 46t50.5 114v2q0 70 -54 117t-132 47t-131.5 -46.5t-53.5 -116.5v-2q0 -69 51 -115t135 -46z" />
    <glyph glyph-name="nine" unicode="9" horiz-adv-x="542" 
d="M237 20q100 0 156.5 97t56.5 257v35q-20 -67 -73 -105.5t-118 -38.5q-90 0 -148.5 58t-58.5 155v3q0 99 59 164.5t149 65.5q86 0 144 -58q79 -79 79 -271v-10q0 -175 -66.5 -278.5t-180.5 -103.5q-89 0 -164 67l20 26q71 -63 145 -63zM261 294q73 0 124 52.5t51 133.5v2
q0 84 -49.5 141.5t-127.5 57.5q-76 0 -125 -58.5t-49 -140.5v-2q0 -86 50 -136t126 -50z" />
    <glyph glyph-name="colon" unicode=":" horiz-adv-x="175" 
d="M65 440v64h46v-64h-46zM65 0v65h46v-65h-46z" />
    <glyph glyph-name="semicolon" unicode=";" horiz-adv-x="174" 
d="M63 440v64h46v-64h-46zM56 -87l-9 18q39 19 36 69h-20v65h46v-59q0 -40 -12 -60.5t-41 -32.5z" />
    <glyph glyph-name="less" unicode="&#x3c;" horiz-adv-x="526" 
d="M448 131l-394 210v22l394 210v-35l-353 -186l353 -186v-35z" />
    <glyph glyph-name="equal" unicode="=" horiz-adv-x="523" 
d="M73 437v32h377v-32h-377zM73 235v32h377v-32h-377z" />
    <glyph glyph-name="greater" unicode="&#x3e;" horiz-adv-x="526" 
d="M77 131v35l354 186l-354 186v35l394 -210v-22z" />
    <glyph glyph-name="question" unicode="?" horiz-adv-x="446" 
d="M186 183l-9 163l4 5q86 11 136 56t50 116v3q0 66 -44.5 108.5t-113.5 42.5q-97 0 -162 -87l-22 21q74 97 185 97q83 0 136.5 -52t53.5 -129v-3q0 -80 -52.5 -130.5t-135.5 -67.5l-8 -143h-18zM173 0v65h46v-65h-46z" />
    <glyph glyph-name="at" unicode="@" horiz-adv-x="858" 
d="M433 -153q-163 0 -271.5 112t-108.5 291q0 122 49.5 227t140.5 169.5t202 64.5q155 0 257.5 -107.5t102.5 -259.5q0 -120 -49.5 -194t-114.5 -74q-48 0 -74.5 31.5t-28.5 78.5q-61 -111 -157 -111q-62 0 -102 43.5t-40 116.5q0 105 60.5 182t139.5 77q50 0 84 -29.5
t45 -77.5l17 89l30 -5l-41 -219q-6 -36 -6 -63q0 -88 76 -88q54 0 95.5 68.5t41.5 173.5q0 140 -95.5 242.5t-240.5 102.5q-106 0 -191.5 -62.5t-131 -162t-45.5 -212.5q0 -170 101 -276t255 -106q113 0 213 61l12 -19q-101 -64 -225 -64zM385 106q55 0 99 44
q33 32 51.5 81.5t18.5 96.5q0 58 -32 97t-82 39q-56 0 -100 -44q-32 -32 -50.5 -81t-18.5 -101q0 -63 31 -97.5t83 -34.5z" />
    <glyph glyph-name="A" unicode="A" horiz-adv-x="658" 
d="M37 0l276 705h32l275 -705h-35l-79 205h-356l-79 -205h-34zM162 235h332l-166 426z" />
    <glyph glyph-name="B" unicode="B" horiz-adv-x="612" 
d="M90 0v700h220q114 0 172 -58q45 -45 45 -117v-2q0 -65 -36 -107.5t-94 -58.5q71 -14 115 -59t44 -112v-2q0 -85 -63 -134.5t-176 -49.5h-227zM494 521v2q0 68 -48.5 107.5t-136.5 39.5h-186v-301h190q82 0 131.5 40.5t49.5 111.5zM523 185q0 72 -54 112.5t-147 40.5h-199
v-308h195q98 0 151.5 40.5t53.5 112.5v2z" />
    <glyph glyph-name="C" unicode="C" horiz-adv-x="603" 
d="M354 -9q-127 0 -209 99t-82 257v5q0 156 84 256.5t211 100.5q116 0 206 -85l-22 -24q-83 79 -185 79q-111 0 -186 -93t-75 -233v-5q0 -143 74 -235t185 -92q105 0 191 86l21 -23q-93 -93 -213 -93z" />
    <glyph glyph-name="D" unicode="D" horiz-adv-x="657" 
d="M90 0v700h175q147 0 238 -96t91 -250v-7q0 -154 -91 -250.5t-239 -96.5h-174zM263 670h-140v-640h140q134 0 215.5 88t81.5 228v7q0 140 -81.5 228.5t-215.5 88.5z" />
    <glyph glyph-name="E" unicode="E" horiz-adv-x="557" 
d="M90 0v700h409v-30h-376v-302h341v-30h-341v-308h381v-30h-414z" />
    <glyph glyph-name="F" unicode="F" horiz-adv-x="531" 
d="M90 0v700h403v-30h-370v-311h335v-31h-335v-328h-33z" />
    <glyph glyph-name="G" unicode="G" horiz-adv-x="656" 
d="M366 -10q-138 0 -220.5 98t-82.5 258v6q0 154 84.5 256t216.5 102q112 0 199 -72l-21 -26q-80 68 -180 68q-114 0 -190 -94t-76 -233v-5q0 -148 75 -238t197 -90q104 0 180 65v238h-204v31h236v-284q-95 -80 -214 -80z" />
    <glyph glyph-name="H" unicode="H" horiz-adv-x="648" 
d="M90 0v700h33v-332h402v332h33v-700h-33v338h-402v-338h-33z" />
    <glyph glyph-name="I" unicode="I" horiz-adv-x="226" 
d="M97 0v700h33v-700h-33z" />
    <glyph glyph-name="J" unicode="J" horiz-adv-x="441" 
d="M188 -9q-110 0 -161 103l26 17q48 -90 137 -90q61 0 98.5 43.5t37.5 126.5v509h33v-504q0 -106 -53 -159q-46 -46 -118 -46z" />
    <glyph glyph-name="K" unicode="K" horiz-adv-x="597" 
d="M90 0v700h33v-452l385 452h42l-260 -305l274 -395h-41l-255 368l-145 -165v-203h-33z" />
    <glyph glyph-name="L" unicode="L" horiz-adv-x="499" 
d="M90 0v700h33v-670h346v-30h-379z" />
    <glyph glyph-name="M" unicode="M" horiz-adv-x="739" 
d="M90 0v700h33l247 -425l246 425h33v-700h-32v638l-246 -422h-3l-246 422v-638h-32z" />
    <glyph glyph-name="N" unicode="N" horiz-adv-x="669" 
d="M90 0v700h31l426 -635v635h32v-700h-27l-430 643v-643h-32z" />
    <glyph glyph-name="O" unicode="O" horiz-adv-x="706" 
d="M353 -11q-129 0 -209.5 101.5t-80.5 256.5v6q0 155 81 256.5t209 101.5q129 0 210 -101.5t81 -256.5v-6q0 -155 -81 -256.5t-210 -101.5zM354 20q112 0 184 92.5t72 233.5v6q0 140 -72.5 234t-184.5 94t-184.5 -93t-72.5 -233v-6q0 -141 73 -234.5t185 -93.5z" />
    <glyph glyph-name="P" unicode="P" horiz-adv-x="570" 
d="M90 0v700h192q114 0 180 -57t66 -156v-1q0 -102 -69 -160t-184 -58h-152v-268h-33zM123 298h154q100 0 159 49.5t59 136.5v2q0 86 -58 135t-158 49h-156v-372z" />
    <glyph glyph-name="Q" unicode="Q" horiz-adv-x="708" 
d="M649 7l-22 -23l-86 83q-78 -78 -188 -78q-129 0 -209.5 101.5t-80.5 256.5v6q0 155 81 256.5t209 101.5q129 0 210 -101.5t81 -256.5v-6q0 -156 -83 -258zM354 20q97 0 164 69l-124 115l22 23l122 -116q72 93 72 235v6q0 140 -72.5 234t-184.5 94t-184.5 -93t-72.5 -233
v-6q0 -141 73 -234.5t185 -93.5z" />
    <glyph glyph-name="R" unicode="R" horiz-adv-x="614" 
d="M90 0v700h220q122 0 185 -63q52 -54 52 -136v-1q0 -84 -51.5 -135t-139.5 -63l203 -302h-39l-200 297q-7 -1 -24 -1h-173v-296h-33zM123 326h173q106 0 162 46.5t56 126.5v1q0 81 -54.5 125.5t-151.5 44.5h-185v-344z" />
    <glyph glyph-name="S" unicode="S" horiz-adv-x="543" 
d="M278 -9q-133 0 -233 100l23 24q91 -94 212 -94q77 0 125.5 42t48.5 106v2q0 58 -38.5 95.5t-144.5 74.5q-110 39 -155 82.5t-45 112.5v2q0 72 57.5 121.5t143.5 49.5q112 0 200 -75l-21 -26q-82 71 -181 71q-73 0 -119 -40.5t-46 -98.5v-2q0 -59 39 -95.5t143 -72.5
q112 -40 156 -85t44 -112v-2q0 -78 -58.5 -129t-150.5 -51z" />
    <glyph glyph-name="T" unicode="T" horiz-adv-x="508" 
d="M237 0v670h-207v30h448v-30h-208v-670h-33z" />
    <glyph glyph-name="U" unicode="U" horiz-adv-x="645" 
d="M322 -10q-110 0 -175 71.5t-65 202.5v436h32v-435q0 -118 56.5 -181.5t153.5 -63.5q96 0 151.5 62.5t55.5 180.5v437h33v-434q0 -132 -65.5 -204t-176.5 -72z" />
    <glyph glyph-name="V" unicode="V" horiz-adv-x="627" 
d="M299 -5l-262 705h35l242 -657l242 657h34l-262 -705h-29z" />
    <glyph glyph-name="W" unicode="W" horiz-adv-x="911" 
d="M246 -5l-203 705h35l183 -647l182 649h27l182 -649l183 647h33l-203 -705h-28l-181 642l-182 -642h-28z" />
    <glyph glyph-name="X" unicode="X" horiz-adv-x="585" 
d="M500 700h38l-226 -342l236 -358h-38l-218 334l-218 -334h-37l234 357l-225 343h38l208 -318z" />
    <glyph glyph-name="Y" unicode="Y" horiz-adv-x="575" 
d="M271 0v291l-249 409h38l228 -377l228 377h37l-249 -408v-292h-33z" />
    <glyph glyph-name="Z" unicode="Z" horiz-adv-x="571" 
d="M56 0v20l412 650h-397v30h441v-20l-412 -650h411v-30h-455z" />
    <glyph glyph-name="bracketleft" unicode="[" horiz-adv-x="364" 
d="M93 -130v830h222v-25h-191v-780h191v-25h-222z" />
    <glyph glyph-name="backslash" unicode="\" horiz-adv-x="411" 
d="M392 -119l-391 908h32l390 -908h-31z" />
    <glyph glyph-name="bracketright" unicode="]" horiz-adv-x="364" 
d="M49 -130v25h191v780h-191v25h222v-830h-222z" />
    <glyph glyph-name="asciicircum" unicode="^" horiz-adv-x="439" 
d="M78 506l129 192h25l128 -192h-29l-112 159l-112 -159h-29z" />
    <glyph glyph-name="underscore" unicode="_" horiz-adv-x="533" 
d="M-1 -153v27h535v-27h-535z" />
    <glyph glyph-name="grave" unicode="`" 
d="M278 589l-94 103l37 18l80 -121h-23z" />
    <glyph glyph-name="a" unicode="a" horiz-adv-x="491" 
d="M210 -10q-69 0 -117.5 42t-48.5 114v3q0 76 53 119.5t141 43.5q79 0 150 -26v50q0 74 -40 113t-113 39q-68 0 -139 -38l-12 27q79 41 153 41q88 0 136 -48q46 -46 46 -131v-339h-31v99q-20 -46 -66 -77.5t-112 -31.5zM212 19q75 0 125.5 48t50.5 114v75q-71 27 -150 27
q-75 0 -118 -35.5t-43 -97.5v-3q0 -59 38.5 -93.5t96.5 -34.5z" />
    <glyph glyph-name="b" unicode="b" horiz-adv-x="560" 
d="M299 -10q-68 0 -116.5 40.5t-70.5 100.5v-131h-32v722h32v-343q23 61 71 101.5t116 40.5q89 0 149 -73.5t60 -189.5v-5q0 -116 -60 -189.5t-149 -73.5zM296 19q79 0 129.5 65t50.5 168v5q0 102 -51 168t-129 66t-132 -67t-54 -166v-6q0 -99 54 -166t132 -67z" />
    <glyph glyph-name="c" unicode="c" horiz-adv-x="468" 
d="M270 -10q-94 0 -157 73t-63 189v5q0 114 64.5 189t157.5 75q88 0 156 -72l-20 -23q-63 65 -138 65q-78 0 -132.5 -66.5t-54.5 -167.5v-4q0 -103 54.5 -168.5t133.5 -65.5q77 1 139 69l21 -21q-68 -77 -161 -77z" />
    <glyph glyph-name="d" unicode="d" horiz-adv-x="560" 
d="M262 -10q-89 0 -149.5 73t-60.5 189v6q0 115 60.5 189t149.5 74q68 0 116 -40.5t71 -100.5v342h31v-722h-31v132q-23 -61 -71.5 -101.5t-115.5 -40.5zM264 19q79 0 132.5 67t53.5 166v6q0 99 -54 166t-132 67q-79 0 -129 -64.5t-50 -168.5v-5q0 -102 50.5 -168t128.5 -66
z" />
    <glyph glyph-name="e" unicode="e" 
d="M270 -10q-93 0 -156.5 71.5t-63.5 191.5v3q0 117 59.5 191t147.5 74q92 0 145 -74.5t53 -187.5v-15h-372q3 -103 57 -164t132 -61q85 0 149 71l21 -20q-72 -80 -172 -80zM83 272h339q-3 92 -47 156t-119 64q-71 0 -120 -61.5t-53 -158.5z" />
    <glyph glyph-name="f" unicode="f" horiz-adv-x="294" 
d="M109 0v482h-69v29h69v64q0 79 38 117q32 32 89 32q30 0 56 -9v-30q-30 10 -56 10q-96 0 -96 -122v-62h149v-29h-149v-482h-31z" />
    <glyph glyph-name="g" unicode="g" horiz-adv-x="556" 
d="M264 -152q-102 0 -191 59l17 27q79 -56 175 -56q84 0 132 46t48 135v102q-26 -54 -74 -91t-111 -37q-86 0 -147 69t-61 173v4q0 104 61 173t147 69q63 0 111 -36.5t74 -90.5v117h31v-454q0 -97 -55 -154q-57 -55 -157 -55zM262 63q76 0 130.5 61.5t54.5 149.5v4
q0 89 -54.5 151t-130.5 62q-75 0 -126 -60.5t-51 -151.5v-3q0 -91 51 -152t126 -61z" />
    <glyph glyph-name="h" unicode="h" horiz-adv-x="528" 
d="M80 0v722h32v-320q17 49 60 84t107 35q82 0 129 -54.5t47 -147.5v-319h-31v313q0 84 -39 131.5t-111 47.5q-68 0 -115 -52.5t-47 -130.5v-309h-32z" />
    <glyph glyph-name="i" unicode="i" horiz-adv-x="204" 
d="M82 644v61h40v-61h-40zM86 0v511h32v-511h-32z" />
    <glyph glyph-name="j" unicode="j" horiz-adv-x="206" 
d="M84 644v61h39v-61h-39zM23 -154q-20 0 -35 4v29q13 -4 34 -4q31 0 48.5 21.5t17.5 62.5v552h31v-553q0 -54 -25 -83t-71 -29z" />
    <glyph glyph-name="k" unicode="k" horiz-adv-x="469" 
d="M80 0v722h32v-535l277 324h38l-192 -221l204 -290h-37l-187 265l-103 -119v-146h-32z" />
    <glyph glyph-name="l" unicode="l" horiz-adv-x="204" 
d="M86 0v722h32v-722h-32z" />
    <glyph glyph-name="m" unicode="m" horiz-adv-x="816" 
d="M80 0v511h32v-104q17 47 56 80.5t95 33.5q59 0 97.5 -32.5t54.5 -87.5q19 50 60.5 85t100.5 35q76 0 120.5 -51.5t44.5 -145.5v-324h-31v319q0 84 -36.5 128.5t-100.5 44.5q-60 0 -103.5 -49.5t-43.5 -127.5v-315h-31v319q0 83 -36.5 128t-99.5 45q-60 0 -103.5 -51
t-43.5 -126v-315h-32z" />
    <glyph glyph-name="n" unicode="n" horiz-adv-x="528" 
d="M80 0v511h32v-109q17 49 60 84t107 35q82 0 129 -54.5t47 -147.5v-319h-31v313q0 84 -39 131.5t-111 47.5q-68 0 -115 -52.5t-47 -130.5v-309h-32z" />
    <glyph glyph-name="o" unicode="o" horiz-adv-x="542" 
d="M271 -10q-96 0 -158.5 75t-62.5 188v4q0 112 62.5 188t159.5 76q96 0 158.5 -75.5t62.5 -187.5v-4q0 -113 -62.5 -188.5t-159.5 -75.5zM272 19q81 0 134.5 67.5t53.5 166.5v4q0 99 -54 166.5t-135 67.5q-82 0 -135 -67t-53 -166v-5q0 -99 54 -166.5t135 -67.5z" />
    <glyph glyph-name="p" unicode="p" horiz-adv-x="560" 
d="M80 -150v661h32v-132q23 61 71 101.5t116 40.5q89 0 149 -73.5t60 -189.5v-5q0 -116 -60 -189.5t-149 -73.5q-68 0 -116.5 40.5t-70.5 100.5v-281h-32zM296 19q79 0 129.5 65t50.5 168v5q0 102 -51 168t-129 66t-132 -67t-54 -166v-6q0 -99 54 -166t132 -67z" />
    <glyph glyph-name="q" unicode="q" horiz-adv-x="560" 
d="M449 -150v282q-23 -61 -71.5 -101.5t-115.5 -40.5q-89 0 -149.5 73t-60.5 189v6q0 115 60.5 189t149.5 74q68 0 116 -40.5t71 -100.5v131h31v-661h-31zM264 19q79 0 132.5 67t53.5 166v6q0 99 -54 166t-132 67q-79 0 -129 -64.5t-50 -168.5v-5q0 -102 50.5 -168
t128.5 -66z" />
    <glyph glyph-name="r" unicode="r" horiz-adv-x="313" 
d="M80 0v511h32v-131q20 60 68.5 100t113.5 39v-33h-4q-76 0 -127 -61t-51 -148v-277h-32z" />
    <glyph glyph-name="s" unicode="s" horiz-adv-x="423" 
d="M211 -8q-100 0 -178 70l20 24q74 -65 160 -65q55 0 91.5 29.5t36.5 74.5v2q0 42 -31.5 67t-102.5 54q-80 32 -115.5 62t-35.5 80v1q0 55 43 91.5t111 36.5q85 0 156 -55l-19 -25q-66 50 -138 50q-54 0 -87.5 -27.5t-33.5 -68.5v-1q0 -38 31 -62t101 -53q82 -34 117.5 -65
t35.5 -84v-1q0 -59 -46 -97t-116 -38z" />
    <glyph glyph-name="t" unicode="t" horiz-adv-x="326" 
d="M221 -7q-55 0 -86.5 31t-31.5 91v367h-68v29h68v162h32v-162h149v-29h-149v-363q0 -97 89 -97q31 0 59 14v-31q-29 -12 -62 -12z" />
    <glyph glyph-name="u" unicode="u" horiz-adv-x="528" 
d="M249 -10q-83 0 -129.5 54t-46.5 148v319h31v-314q0 -83 39 -130.5t111 -47.5q68 0 115 52.5t47 130.5v309h31v-511h-31v108q-17 -48 -60 -83t-107 -35z" />
    <glyph glyph-name="v" unicode="v" horiz-adv-x="490" 
d="M232 -4l-196 515h34l175 -471l176 471h33l-196 -515h-26z" />
    <glyph glyph-name="w" unicode="w" horiz-adv-x="719" 
d="M197 -4l-155 515h33l135 -465l138 466h25l137 -466l135 465h33l-156 -515h-26l-136 460l-137 -460h-26z" />
    <glyph glyph-name="x" unicode="x" horiz-adv-x="470" 
d="M78 511l156 -228l158 228h35l-175 -250l183 -261h-36l-166 239l-164 -239h-35l181 260l-173 251h36z" />
    <glyph glyph-name="y" unicode="y" horiz-adv-x="495" 
d="M255 42l171 469h34l-193 -515q-32 -86 -64.5 -117.5t-79.5 -31.5q-42 0 -81 22l12 28q33 -21 70 -21q36 0 61.5 26.5t54.5 99.5l-204 509h34z" />
    <glyph glyph-name="z" unicode="z" horiz-adv-x="437" 
d="M40 0v18l314 465h-302v28h344v-18l-314 -465h314v-28h-356z" />
    <glyph glyph-name="braceleft" unicode="{" horiz-adv-x="394" 
d="M340 -140q-105 18 -139 60t-34 118q0 16 6.5 57.5t6.5 58.5q0 53 -29 87t-90 34h-18v26h18q61 0 90 33.5t29 86.5q0 18 -6.5 59t-6.5 57q0 76 34 118t139 60l4 -24q-90 -17 -118 -51.5t-28 -104.5q0 -15 6.5 -55t6.5 -58q0 -55 -26.5 -90.5t-76.5 -43.5q103 -20 103 -134
q0 -19 -6.5 -59t-6.5 -55q0 -69 28 -103.5t118 -52.5z" />
    <glyph glyph-name="bar" unicode="|" horiz-adv-x="251" 
d="M112 -119v908h28v-908h-28z" />
    <glyph glyph-name="braceright" unicode="}" horiz-adv-x="394" 
d="M56 -140l-5 24q90 18 118 52t28 104q0 15 -6.5 55t-6.5 59q0 54 27 89.5t77 44.5q-51 9 -77.5 44t-26.5 90q0 18 6.5 58t6.5 55q0 70 -28 104.5t-118 51.5l5 24q104 -18 138.5 -60t34.5 -118q0 -16 -6.5 -57t-6.5 -59q0 -53 28.5 -86.5t89.5 -33.5h18v-26h-18
q-61 0 -89.5 -34t-28.5 -87q0 -17 6.5 -58.5t6.5 -57.5q0 -76 -34.5 -118t-138.5 -60z" />
    <glyph glyph-name="asciitilde" unicode="~" horiz-adv-x="401" 
d="M258 255q-20 0 -61 26q-38 25 -53 25q-16 0 -27 -12.5t-21 -41.5l-21 5q20 80 69 80q20 0 62 -27q36 -24 52 -24q30 0 47 55l22 -6q-20 -80 -69 -80z" />
    <glyph glyph-name="uni00A0" unicode="&#xa0;" horiz-adv-x="248" 
 />
    <glyph glyph-name="exclamdown" unicode="&#xa1;" horiz-adv-x="200" 
d="M77 635v65h46v-65h-46zM82 0v85l10 432h16l10 -432v-85h-36z" />
    <glyph glyph-name="cent" unicode="&#xa2;" horiz-adv-x="480" 
d="M329 705l-13 -89q66 -12 124 -68l-20 -23q-50 51 -108 62l-63 -468q18 -2 29 -2q84 0 144 67l20 -20q-69 -76 -166 -76q-20 0 -29 2l-14 -96h-29l14 102q-72 22 -116.5 91t-44.5 165v3q0 114 63.5 189t157.5 75h9l12 86h30zM90 352q0 -83 36 -144t96 -82l61 464h-5
q-81 0 -134.5 -65.5t-53.5 -168.5v-4z" />
    <glyph glyph-name="sterling" unicode="&#xa3;" horiz-adv-x="522" 
d="M57 0v17l77 13v289h-78v30h78v134q0 119 57 177q51 49 126 49q103 0 165 -89l-25 -19q-56 78 -141 78q-61 0 -102 -40q-48 -48 -48 -155v-135h247v-30h-247v-289h315v-30h-424z" />
    <glyph glyph-name="yen" unicode="&#xa5;" horiz-adv-x="550" 
d="M85 281v28h165l-228 391h39l215 -377l215 377h37l-228 -391h165v-28h-174v-123h174v-28h-174v-130h-31v130h-175v28h175v123h-175z" />
    <glyph glyph-name="section" unicode="&#xa7;" horiz-adv-x="544" 
d="M324 225q105 -43 105 -115v-2q0 -51 -43.5 -84t-114.5 -33q-101 0 -173 63l20 25q67 -58 155 -58q57 0 90 24.5t33 62.5v2q0 38 -39.5 65t-130.5 53q-91 27 -130.5 58t-39.5 76v2q0 47 43.5 79t120.5 33q-105 43 -105 115v2q0 51 43.5 83.5t114.5 32.5q104 0 174 -63
l-21 -24q-66 57 -155 57q-57 0 -89.5 -24t-32.5 -62v-2q0 -38 39.5 -65.5t129.5 -53.5q92 -27 131.5 -58t39.5 -76v-2q0 -46 -43.5 -78t-121.5 -33zM324 246q56 0 94 25t38 63v3q0 33 -31 57t-102 44q-52 16 -103 16q-55 0 -93.5 -24.5t-38.5 -63.5v-2q0 -33 31 -57t102 -45
q56 -16 103 -16z" />
    <glyph glyph-name="dieresis" unicode="&#xa8;" 
d="M291 599v58h44v-58h-44zM167 599v58h44v-58h-44z" />
    <glyph glyph-name="copyright" unicode="&#xa9;" horiz-adv-x="733" 
d="M366 -12q-136 0 -228.5 104t-92.5 252v12q0 148 92.5 252t229.5 104q136 0 228.5 -103.5t92.5 -251.5v-13q0 -148 -93 -252t-229 -104zM366 9q128 0 214 98t86 237v13q0 139 -85.5 236.5t-213.5 97.5t-214 -98t-86 -237v-12q0 -139 85.5 -237t213.5 -98zM373 161
q-66 0 -110.5 53t-44.5 137v4q0 83 45 137t112 54q61 0 113 -48l-19 -20q-44 42 -95 42q-54 0 -90.5 -46.5t-36.5 -117.5q-1 0 -1 -2t1 -3q0 -71 37 -117.5t91 -46.5q52 0 97 45l18 -19q-52 -52 -117 -52z" />
    <glyph glyph-name="ordfeminine" unicode="&#xaa;" horiz-adv-x="354" 
d="M159 410q-38 0 -65.5 23t-27.5 64v3q0 42 29.5 66t78.5 24q33 0 77 -12v19q0 81 -79 81q-36 0 -76 -21l-10 23q47 22 88 22q50 0 77 -28q25 -25 25 -75v-184h-25v47q-32 -52 -92 -52zM161 433q37 0 63.5 24t26.5 57v41q-38 12 -78 12q-37 0 -59 -18t-22 -48v-3
q0 -30 19.5 -47.5t49.5 -17.5zM64 315v23h219v-23h-219z" />
    <glyph glyph-name="guillemotleft" unicode="&#xab;" horiz-adv-x="433" 
d="M357 45l-153 207v6l153 207l22 -14l-138 -195l138 -197zM193 45l-152 207v6l152 207l23 -14l-139 -195l139 -197z" />
    <glyph glyph-name="registered" unicode="&#xae;" horiz-adv-x="383" 
d="M192 359q-68 0 -113 50t-45 123v6q0 72 45.5 123t112.5 51t112.5 -50.5t45.5 -122.5v-7q0 -71 -45.5 -122t-112.5 -51zM192 374q60 0 101 46.5t41 111.5v7q0 66 -40.5 112t-101.5 46t-101.5 -46.5t-40.5 -112.5v-6q0 -66 40.5 -112t101.5 -46zM136 448v181h63
q27 0 44 -14.5t17 -39.5v-1q0 -40 -40 -53l46 -73h-24l-44 70h-42v-70h-20zM156 535h41q20 0 31.5 10t11.5 28v1q0 36 -43 36h-41v-75z" />
    <glyph glyph-name="macron" unicode="&#xaf;" 
d="M133 610v29h237v-29h-237z" />
    <glyph glyph-name="degree" unicode="&#xb0;" horiz-adv-x="377" 
d="M188 414q-53 0 -91 42t-38 102v4q0 61 38 102.5t91 41.5q54 0 92 -41t38 -103v-4q0 -60 -38 -102t-92 -42zM188 442q42 0 71 33t29 83v4q0 51 -29 84t-71 33t-70.5 -33.5t-28.5 -83.5v-4q0 -49 29 -82.5t70 -33.5z" />
    <glyph glyph-name="plusminus" unicode="&#xb1;" horiz-adv-x="523" 
d="M462 358h-185v-185h-31v185h-185v29h185v184h31v-184h185v-29zM462 33h-401v29h401v-29z" />
    <glyph glyph-name="acute" unicode="&#xb4;" 
d="M202 589l80 121l36 -18l-94 -103h-22z" />
    <glyph glyph-name="paragraph" unicode="&#xb6;" horiz-adv-x="420" 
d="M300 0v271h-6q-112 0 -181.5 57.5t-69.5 156.5v2q0 98 66 155.5t173 57.5h51v-700h-33z" />
    <glyph glyph-name="periodcentered" unicode="&#xb7;" horiz-adv-x="169" 
d="M61 259v65h47v-65h-47z" />
    <glyph glyph-name="cedilla" unicode="&#xb8;" 
d="M213 -131l-34 15l78 123h23z" />
    <glyph glyph-name="ordmasculine" unicode="&#xba;" horiz-adv-x="355" 
d="M177 410q-54 0 -88 41.5t-34 102.5v5q0 63 34.5 104.5t88.5 41.5t88.5 -41.5t34.5 -103.5v-5q0 -61 -35 -103t-89 -42zM58 315v23h240v-23h-240zM179 435q42 0 68 34t26 85v5q0 52 -27 86t-69 34t-68.5 -34t-26.5 -85v-5q0 -51 27.5 -85.5t69.5 -34.5z" />
    <glyph glyph-name="guillemotright" unicode="&#xbb;" horiz-adv-x="433" 
d="M239 45l-22 14l139 196l-139 196l22 14l153 -207v-6zM76 45l-23 14l139 196l-139 196l23 14l152 -207v-6z" />
    <glyph glyph-name="questiondown" unicode="&#xbf;" horiz-adv-x="446" 
d="M227 635v65h46v-65h-46zM235 -8q-83 0 -136.5 52t-53.5 129v3q0 80 53 130.5t136 67.5l8 143h18l9 -163l-4 -5q-86 -11 -136 -56t-50 -116v-3q0 -66 44.5 -108.5t113.5 -42.5q95 0 162 87l22 -21q-74 -97 -186 -97z" />
    <glyph glyph-name="Agrave" unicode="&#xc0;" horiz-adv-x="658" 
d="M37 0l276 705h32l275 -705h-35l-79 205h-356l-79 -205h-34zM162 235h332l-166 426zM343 763h-26l-96 87l36 18z" />
    <glyph glyph-name="Aacute" unicode="&#xc1;" horiz-adv-x="658" 
d="M37 0l276 705h32l275 -705h-35l-79 205h-356l-79 -205h-34zM162 235h332l-166 426zM313 763l86 105l36 -18l-96 -87h-26z" />
    <glyph glyph-name="Acircumflex" unicode="&#xc2;" horiz-adv-x="658" 
d="M37 0l276 705h32l275 -705h-35l-79 205h-356l-79 -205h-34zM162 235h332l-166 426zM220 760l94 99h28l94 -99h-32l-77 69l-76 -69h-31z" />
    <glyph glyph-name="Atilde" unicode="&#xc3;" horiz-adv-x="658" 
d="M37 0l276 705h32l275 -705h-35l-79 205h-356l-79 -205h-34zM162 235h332l-166 426zM388 769q-16 0 -64 24q-40 22 -52 22q-29 0 -47 -49l-23 5q20 74 69 74q20 0 64 -25q38 -20 52 -20q16 0 26.5 11t20.5 38l22 -6q-19 -74 -68 -74z" />
    <glyph glyph-name="Adieresis" unicode="&#xc4;" horiz-adv-x="658" 
d="M37 0l276 705h32l275 -705h-35l-79 205h-356l-79 -205h-34zM162 235h332l-166 426zM371 774v56h47v-56h-47zM238 774v56h47v-56h-47z" />
    <glyph glyph-name="Aring" unicode="&#xc5;" horiz-adv-x="658" 
d="M37 0l263 672q-29 8 -47 30t-18 51q0 36 27 60t67 24q39 0 66 -24t27 -60q0 -29 -18 -50.5t-47 -29.5l263 -673h-35l-79 205h-356l-79 -205h-34zM162 235h332l-166 426zM328 690q29 0 49 18t20 45t-20 45t-49 18t-48.5 -18t-19.5 -45t19.5 -45t48.5 -18z" />
    <glyph glyph-name="AE" unicode="&#xc6;" horiz-adv-x="862" 
d="M8 0l363 700h433v-30h-366v-302h331v-30h-331v-308h370v-30h-403v205h-257l-105 -205h-35zM164 235h241v435h-16z" />
    <glyph glyph-name="Ccedilla" unicode="&#xc7;" horiz-adv-x="603" 
d="M298 -131l-34 15l68 108q-119 8 -194 105.5t-75 249.5v5q0 156 84 256.5t211 100.5q116 0 206 -85l-22 -24q-83 79 -185 79q-111 0 -186 -93t-75 -233v-5q0 -143 74 -235t185 -92q105 0 191 86l21 -23q-92 -92 -210 -93z" />
    <glyph glyph-name="Egrave" unicode="&#xc8;" horiz-adv-x="557" 
d="M312 757h-26l-96 87l36 18zM90 0v700h409v-30h-376v-302h341v-30h-341v-308h381v-30h-414z" />
    <glyph glyph-name="Eacute" unicode="&#xc9;" horiz-adv-x="557" 
d="M281 757l86 105l36 -18l-96 -87h-26zM90 0v700h409v-30h-376v-302h341v-30h-341v-308h381v-30h-414z" />
    <glyph glyph-name="Ecircumflex" unicode="&#xca;" horiz-adv-x="557" 
d="M90 0v700h409v-30h-376v-302h341v-30h-341v-308h381v-30h-414zM189 759l94 99h28l94 -99h-32l-77 69l-76 -69h-31z" />
    <glyph glyph-name="Edieresis" unicode="&#xcb;" horiz-adv-x="557" 
d="M340 768v56h47v-56h-47zM207 768v56h47v-56h-47zM90 0v700h409v-30h-376v-302h341v-30h-341v-308h381v-30h-414z" />
    <glyph glyph-name="Igrave" unicode="&#xcc;" horiz-adv-x="226" 
d="M97 0v700h33v-700h-33zM129 757h-26l-96 87l36 18z" />
    <glyph glyph-name="Iacute" unicode="&#xcd;" horiz-adv-x="226" 
d="M97 0v700h33v-700h-33zM99 757l86 105l36 -18l-96 -87h-26z" />
    <glyph glyph-name="Icircumflex" unicode="&#xce;" horiz-adv-x="226" 
d="M97 0v700h33v-700h-33zM6 759l94 99h28l94 -99h-32l-77 69l-76 -69h-31z" />
    <glyph glyph-name="Idieresis" unicode="&#xcf;" horiz-adv-x="226" 
d="M97 0v700h33v-700h-33zM157 768v56h47v-56h-47zM24 768v56h47v-56h-47z" />
    <glyph glyph-name="Eth" unicode="&#xd0;" horiz-adv-x="677" 
d="M110 0v337h-68v30h68v333h180q143 0 233.5 -96.5t90.5 -249.5v-7q0 -154 -90.5 -250.5t-234.5 -96.5h-179zM341 337h-198v-307h146q131 0 211.5 88t80.5 228v7q0 139 -81 228t-211 89h-146v-303h198v-30z" />
    <glyph glyph-name="Ntilde" unicode="&#xd1;" horiz-adv-x="669" 
d="M397 758q-16 0 -64 24q-40 22 -52 22q-29 0 -47 -49l-23 5q20 74 69 74q20 0 64 -25q38 -20 52 -20q16 0 26.5 11t20.5 38l22 -6q-19 -74 -68 -74zM90 0v700h31l426 -635v635h32v-700h-27l-430 643v-643h-32z" />
    <glyph glyph-name="Ograve" unicode="&#xd2;" horiz-adv-x="706" 
d="M368 763h-26l-96 87l36 18zM353 -11q-129 0 -209.5 101.5t-80.5 256.5v6q0 155 81 256.5t209 101.5q129 0 210 -101.5t81 -256.5v-6q0 -155 -81 -256.5t-210 -101.5zM354 20q112 0 184 92.5t72 233.5v6q0 140 -72.5 234t-184.5 94t-184.5 -93t-72.5 -233v-6
q0 -141 73 -234.5t185 -93.5z" />
    <glyph glyph-name="Oacute" unicode="&#xd3;" horiz-adv-x="706" 
d="M337 763l86 105l36 -18l-96 -87h-26zM353 -11q-129 0 -209.5 101.5t-80.5 256.5v6q0 155 81 256.5t209 101.5q129 0 210 -101.5t81 -256.5v-6q0 -155 -81 -256.5t-210 -101.5zM354 20q112 0 184 92.5t72 233.5v6q0 140 -72.5 234t-184.5 94t-184.5 -93t-72.5 -233v-6
q0 -141 73 -234.5t185 -93.5z" />
    <glyph glyph-name="Ocircumflex" unicode="&#xd4;" horiz-adv-x="706" 
d="M353 -11q-129 0 -209.5 101.5t-80.5 256.5v6q0 155 81 256.5t209 101.5q129 0 210 -101.5t81 -256.5v-6q0 -155 -81 -256.5t-210 -101.5zM354 20q112 0 184 92.5t72 233.5v6q0 140 -72.5 234t-184.5 94t-184.5 -93t-72.5 -233v-6q0 -141 73 -234.5t185 -93.5zM244 765
l94 99h28l94 -99h-32l-77 69l-76 -69h-31z" />
    <glyph glyph-name="Otilde" unicode="&#xd5;" horiz-adv-x="706" 
d="M413 769q-16 0 -64 24q-40 22 -52 22q-29 0 -47 -49l-23 5q20 74 69 74q20 0 64 -25q38 -20 52 -20q16 0 26.5 11t20.5 38l22 -6q-19 -74 -68 -74zM353 -11q-129 0 -209.5 101.5t-80.5 256.5v6q0 155 81 256.5t209 101.5q129 0 210 -101.5t81 -256.5v-6
q0 -155 -81 -256.5t-210 -101.5zM354 20q112 0 184 92.5t72 233.5v6q0 140 -72.5 234t-184.5 94t-184.5 -93t-72.5 -233v-6q0 -141 73 -234.5t185 -93.5z" />
    <glyph glyph-name="Odieresis" unicode="&#xd6;" horiz-adv-x="706" 
d="M396 774v56h47v-56h-47zM263 774v56h47v-56h-47zM353 -11q-129 0 -209.5 101.5t-80.5 256.5v6q0 155 81 256.5t209 101.5q129 0 210 -101.5t81 -256.5v-6q0 -155 -81 -256.5t-210 -101.5zM354 20q112 0 184 92.5t72 233.5v6q0 140 -72.5 234t-184.5 94t-184.5 -93
t-72.5 -233v-6q0 -141 73 -234.5t185 -93.5z" />
    <glyph glyph-name="multiply" unicode="&#xd7;" horiz-adv-x="522" 
d="M418 168l-158 163l-158 -163l-21 21l160 162l-160 162l23 23l157 -163l158 163l22 -21l-160 -162l160 -162z" />
    <glyph glyph-name="Oslash" unicode="&#xd8;" horiz-adv-x="706" 
d="M607 706h36l-77 -101q78 -102 78 -252v-5q0 -155 -81 -257t-210 -102q-114 0 -193 82l-61 -77h-36l77 101q-77 101 -77 252v5q0 155 80.5 257t209.5 102q115 0 193 -83zM354 19q113 0 185 93t72 234v5q0 135 -65 227l-367 -480q71 -79 175 -79zM96 349q0 -137 64 -228
l367 480q-70 80 -174 80q-113 0 -185 -93t-72 -234v-5z" />
    <glyph glyph-name="Ugrave" unicode="&#xd9;" horiz-adv-x="645" 
d="M337 752h-26l-96 87l36 18zM322 -10q-110 0 -175 71.5t-65 202.5v436h32v-435q0 -118 56.5 -181.5t153.5 -63.5q96 0 151.5 62.5t55.5 180.5v437h33v-434q0 -132 -65.5 -204t-176.5 -72z" />
    <glyph glyph-name="Uacute" unicode="&#xda;" horiz-adv-x="645" 
d="M307 752l86 105l36 -18l-96 -87h-26zM322 -10q-110 0 -175 71.5t-65 202.5v436h32v-435q0 -118 56.5 -181.5t153.5 -63.5q96 0 151.5 62.5t55.5 180.5v437h33v-434q0 -132 -65.5 -204t-176.5 -72z" />
    <glyph glyph-name="Ucircumflex" unicode="&#xdb;" horiz-adv-x="645" 
d="M322 -10q-110 0 -175 71.5t-65 202.5v436h32v-435q0 -118 56.5 -181.5t153.5 -63.5q96 0 151.5 62.5t55.5 180.5v437h33v-434q0 -132 -65.5 -204t-176.5 -72zM214 754l94 99h28l94 -99h-32l-77 69l-76 -69h-31z" />
    <glyph glyph-name="Udieresis" unicode="&#xdc;" horiz-adv-x="645" 
d="M365 763v56h47v-56h-47zM232 763v56h47v-56h-47zM322 -10q-110 0 -175 71.5t-65 202.5v436h32v-435q0 -118 56.5 -181.5t153.5 -63.5q96 0 151.5 62.5t55.5 180.5v437h33v-434q0 -132 -65.5 -204t-176.5 -72z" />
    <glyph glyph-name="Yacute" unicode="&#xdd;" horiz-adv-x="575" 
d="M271 0v291l-249 409h38l228 -377l228 377h37l-249 -408v-292h-33zM271 752l86 105l36 -18l-96 -87h-26z" />
    <glyph glyph-name="Thorn" unicode="&#xde;" horiz-adv-x="571" 
d="M90 0v700h33v-129h160q113 0 179 -57t66 -155v-2q0 -102 -68.5 -160t-182.5 -58h-154v-139h-33zM123 169h155q100 0 158.5 49.5t58.5 136.5v2q0 87 -57.5 135.5t-156.5 48.5h-158v-372z" />
    <glyph glyph-name="germandbls" unicode="&#xdf;" horiz-adv-x="510" 
d="M231 -2v27q90 3 143.5 46t53.5 116v3q0 70 -52 111t-145 51v26q72 21 116 66.5t44 112.5v2q0 59 -37.5 98.5t-96.5 39.5q-68 0 -106.5 -50t-38.5 -135v-512h-32v512q0 98 47.5 156.5t130.5 58.5q73 0 119.5 -47.5t46.5 -118.5v-3q0 -68 -41.5 -116.5t-104.5 -71.5
q80 -14 131 -59t51 -119v-3q0 -87 -63 -138.5t-166 -52.5z" />
    <glyph glyph-name="agrave" unicode="&#xe0;" horiz-adv-x="491" 
d="M210 -10q-69 0 -117.5 42t-48.5 114v3q0 76 53 119.5t141 43.5q79 0 150 -26v50q0 74 -40 113t-113 39q-68 0 -139 -38l-12 27q79 41 153 41q88 0 136 -48q46 -46 46 -131v-339h-31v99q-20 -46 -66 -77.5t-112 -31.5zM212 19q75 0 125.5 48t50.5 114v75q-71 27 -150 27
q-75 0 -118 -35.5t-43 -97.5v-3q0 -59 38.5 -93.5t96.5 -34.5zM239 589l-94 103l37 18l80 -121h-23z" />
    <glyph glyph-name="aacute" unicode="&#xe1;" horiz-adv-x="491" 
d="M210 -10q-69 0 -117.5 42t-48.5 114v3q0 76 53 119.5t141 43.5q79 0 150 -26v50q0 74 -40 113t-113 39q-68 0 -139 -38l-12 27q79 41 153 41q88 0 136 -48q46 -46 46 -131v-339h-31v99q-20 -46 -66 -77.5t-112 -31.5zM212 19q75 0 125.5 48t50.5 114v75q-71 27 -150 27
q-75 0 -118 -35.5t-43 -97.5v-3q0 -59 38.5 -93.5t96.5 -34.5zM233 589l80 121l36 -18l-94 -103h-22z" />
    <glyph glyph-name="acircumflex" unicode="&#xe2;" horiz-adv-x="491" 
d="M210 -10q-69 0 -117.5 42t-48.5 114v3q0 76 53 119.5t141 43.5q79 0 150 -26v50q0 74 -40 113t-113 39q-68 0 -139 -38l-12 27q79 41 153 41q88 0 136 -48q46 -46 46 -131v-339h-31v99q-20 -46 -66 -77.5t-112 -31.5zM212 19q75 0 125.5 48t50.5 114v75q-71 27 -150 27
q-75 0 -118 -35.5t-43 -97.5v-3q0 -59 38.5 -93.5t96.5 -34.5zM145 590l91 118h24l91 -118h-28l-76 83l-75 -83h-27z" />
    <glyph glyph-name="atilde" unicode="&#xe3;" horiz-adv-x="491" 
d="M210 -10q-69 0 -117.5 42t-48.5 114v3q0 76 53 119.5t141 43.5q79 0 150 -26v50q0 74 -40 113t-113 39q-68 0 -139 -38l-12 27q79 41 153 41q88 0 136 -48q46 -46 46 -131v-339h-31v99q-20 -46 -66 -77.5t-112 -31.5zM212 19q75 0 125.5 48t50.5 114v75q-71 27 -150 27
q-75 0 -118 -35.5t-43 -97.5v-3q0 -59 38.5 -93.5t96.5 -34.5zM305 595q-21 0 -60 26q-35 25 -53 25q-29 0 -46 -55l-22 6q20 80 69 80q21 0 61 -27q36 -24 52 -24q30 0 46 55l22 -6q-19 -80 -69 -80z" />
    <glyph glyph-name="adieresis" unicode="&#xe4;" horiz-adv-x="491" 
d="M210 -10q-69 0 -117.5 42t-48.5 114v3q0 76 53 119.5t141 43.5q79 0 150 -26v50q0 74 -40 113t-113 39q-68 0 -139 -38l-12 27q79 41 153 41q88 0 136 -48q46 -46 46 -131v-339h-31v99q-20 -46 -66 -77.5t-112 -31.5zM212 19q75 0 125.5 48t50.5 114v75q-71 27 -150 27
q-75 0 -118 -35.5t-43 -97.5v-3q0 -59 38.5 -93.5t96.5 -34.5zM288 599v58h44v-58h-44zM164 599v58h44v-58h-44z" />
    <glyph glyph-name="aring" unicode="&#xe5;" horiz-adv-x="491" 
d="M210 -10q-69 0 -117.5 42t-48.5 114v3q0 76 53 119.5t141 43.5q79 0 150 -26v50q0 74 -40 113t-113 39q-68 0 -139 -38l-12 27q79 41 153 41q88 0 136 -48q46 -46 46 -131v-339h-31v99q-20 -46 -66 -77.5t-112 -31.5zM212 19q75 0 125.5 48t50.5 114v75q-71 27 -150 27
q-75 0 -118 -35.5t-43 -97.5v-3q0 -59 38.5 -93.5t96.5 -34.5zM248 590q-38 0 -64 25.5t-26 62.5t26 62.5t64 25.5t64.5 -25.5t26.5 -62.5t-26.5 -62.5t-64.5 -25.5zM248 610q28 0 48 20t20 48t-20 48t-48 20t-48 -20t-20 -48t20 -48t48 -20z" />
    <glyph glyph-name="ae" unicode="&#xe6;" horiz-adv-x="831" 
d="M213 -10q-73 0 -121 41.5t-48 114.5v3q0 76 52.5 119.5t139.5 43.5q73 0 146 -25q0 2 1 24t1 25q-1 75 -40.5 113.5t-112.5 38.5q-66 0 -135 -36l-12 28q78 38 149 38t116 -33t58 -97q25 62 72 97.5t107 35.5q92 0 145 -74.5t53 -187.5v-15h-371q3 -103 57 -164t131 -61
q89 0 150 68l20 -21q-71 -76 -171 -76q-60 0 -110 32t-78 90q-29 -52 -81 -87t-118 -35zM216 19q60 0 108 35t75 90q-16 47 -18 113q-67 26 -145 26q-73 0 -116 -35.5t-43 -97.5v-3q0 -60 38 -94t101 -34zM413 272h338q-2 92 -46.5 156t-119.5 64q-72 0 -120 -61t-52 -159z
" />
    <glyph glyph-name="ccedilla" unicode="&#xe7;" horiz-adv-x="468" 
d="M215 -131l-34 15l68 108q-87 8 -143 79.5t-56 180.5v5q0 114 64.5 189t157.5 75q88 0 156 -72l-20 -23q-63 65 -138 65q-78 0 -132.5 -66.5t-54.5 -167.5v-4q0 -103 54.5 -168.5t133.5 -65.5q77 1 139 69l21 -21q-67 -76 -158 -77z" />
    <glyph glyph-name="egrave" unicode="&#xe8;" 
d="M270 -10q-93 0 -156.5 71.5t-63.5 191.5v3q0 117 59.5 191t147.5 74q92 0 145 -74.5t53 -187.5v-15h-372q3 -103 57 -164t132 -61q85 0 149 71l21 -20q-72 -80 -172 -80zM83 272h339q-3 92 -47 156t-119 64q-71 0 -120 -61.5t-53 -158.5zM249 589l-94 103l37 18l80 -121
h-23z" />
    <glyph glyph-name="eacute" unicode="&#xe9;" 
d="M270 -10q-93 0 -156.5 71.5t-63.5 191.5v3q0 117 59.5 191t147.5 74q92 0 145 -74.5t53 -187.5v-15h-372q3 -103 57 -164t132 -61q85 0 149 71l21 -20q-72 -80 -172 -80zM83 272h339q-3 92 -47 156t-119 64q-71 0 -120 -61.5t-53 -158.5zM243 589l80 121l36 -18l-94 -103
h-22z" />
    <glyph glyph-name="ecircumflex" unicode="&#xea;" 
d="M270 -10q-93 0 -156.5 71.5t-63.5 191.5v3q0 117 59.5 191t147.5 74q92 0 145 -74.5t53 -187.5v-15h-372q3 -103 57 -164t132 -61q85 0 149 71l21 -20q-72 -80 -172 -80zM83 272h339q-3 92 -47 156t-119 64q-71 0 -120 -61.5t-53 -158.5zM153 590l91 118h24l91 -118h-28
l-76 83l-75 -83h-27z" />
    <glyph glyph-name="edieresis" unicode="&#xeb;" 
d="M270 -10q-93 0 -156.5 71.5t-63.5 191.5v3q0 117 59.5 191t147.5 74q92 0 145 -74.5t53 -187.5v-15h-372q3 -103 57 -164t132 -61q85 0 149 71l21 -20q-72 -80 -172 -80zM83 272h339q-3 92 -47 156t-119 64q-71 0 -120 -61.5t-53 -158.5zM296 599v58h44v-58h-44zM172 599
v58h44v-58h-44z" />
    <glyph glyph-name="igrave" unicode="&#xec;" horiz-adv-x="204" 
d="M86 0v511h32v-511h-32zM94 589l-94 103l37 18l80 -121h-23z" />
    <glyph glyph-name="iacute" unicode="&#xed;" horiz-adv-x="204" 
d="M89 589l80 121l36 -18l-94 -103h-22zM86 0v511h32v-511h-32z" />
    <glyph glyph-name="icircumflex" unicode="&#xee;" horiz-adv-x="204" 
d="M-1 590l91 118h24l91 -118h-28l-76 83l-75 -83h-27zM86 0v511h32v-511h-32z" />
    <glyph glyph-name="idieresis" unicode="&#xef;" horiz-adv-x="204" 
d="M142 599v58h44v-58h-44zM18 599v58h44v-58h-44zM86 0v511h32v-511h-32z" />
    <glyph glyph-name="eth" unicode="&#xf0;" horiz-adv-x="539" 
d="M397 699l-84 -50q175 -182 175 -372v-6q0 -126 -62 -204t-157 -78q-94 0 -156.5 76.5t-62.5 187.5v5q0 113 63 186.5t151 73.5q97 0 163 -81q-39 95 -140 196l-98 -58l-15 23l93 55q-35 34 -80 69h47q30 -25 59 -53l89 53zM270 19q79 0 132.5 68t53.5 170v5
q0 101 -54 164.5t-135 63.5q-79 0 -131.5 -66t-52.5 -167v-4q0 -98 53.5 -166t133.5 -68z" />
    <glyph glyph-name="ntilde" unicode="&#xf1;" horiz-adv-x="528" 
d="M80 0v511h32v-109q17 49 60 84t107 35q82 0 129 -54.5t47 -147.5v-319h-31v313q0 84 -39 131.5t-111 47.5q-68 0 -115 -52.5t-47 -130.5v-309h-32zM324 595q-21 0 -60 26q-35 25 -53 25q-29 0 -46 -55l-22 6q20 80 69 80q21 0 61 -27q36 -24 52 -24q30 0 46 55l22 -6
q-19 -80 -69 -80z" />
    <glyph glyph-name="ograve" unicode="&#xf2;" horiz-adv-x="542" 
d="M271 -10q-96 0 -158.5 75t-62.5 188v4q0 112 62.5 188t159.5 76q96 0 158.5 -75.5t62.5 -187.5v-4q0 -113 -62.5 -188.5t-159.5 -75.5zM272 19q81 0 134.5 67.5t53.5 166.5v4q0 99 -54 166.5t-135 67.5q-82 0 -135 -67t-53 -166v-5q0 -99 54 -166.5t135 -67.5zM263 589
l-94 103l37 18l80 -121h-23z" />
    <glyph glyph-name="oacute" unicode="&#xf3;" horiz-adv-x="542" 
d="M257 589l80 121l36 -18l-94 -103h-22zM271 -10q-96 0 -158.5 75t-62.5 188v4q0 112 62.5 188t159.5 76q96 0 158.5 -75.5t62.5 -187.5v-4q0 -113 -62.5 -188.5t-159.5 -75.5zM272 19q81 0 134.5 67.5t53.5 166.5v4q0 99 -54 166.5t-135 67.5q-82 0 -135 -67t-53 -166v-5
q0 -99 54 -166.5t135 -67.5z" />
    <glyph glyph-name="ocircumflex" unicode="&#xf4;" horiz-adv-x="542" 
d="M168 590l91 118h24l91 -118h-28l-76 83l-75 -83h-27zM271 -10q-96 0 -158.5 75t-62.5 188v4q0 112 62.5 188t159.5 76q96 0 158.5 -75.5t62.5 -187.5v-4q0 -113 -62.5 -188.5t-159.5 -75.5zM272 19q81 0 134.5 67.5t53.5 166.5v4q0 99 -54 166.5t-135 67.5
q-82 0 -135 -67t-53 -166v-5q0 -99 54 -166.5t135 -67.5z" />
    <glyph glyph-name="otilde" unicode="&#xf5;" horiz-adv-x="542" 
d="M271 -10q-96 0 -158.5 75t-62.5 188v4q0 112 62.5 188t159.5 76q96 0 158.5 -75.5t62.5 -187.5v-4q0 -113 -62.5 -188.5t-159.5 -75.5zM272 19q81 0 134.5 67.5t53.5 166.5v4q0 99 -54 166.5t-135 67.5q-82 0 -135 -67t-53 -166v-5q0 -99 54 -166.5t135 -67.5zM328 595
q-21 0 -60 26q-35 25 -53 25q-29 0 -46 -55l-22 6q20 80 69 80q21 0 61 -27q36 -24 52 -24q30 0 46 55l22 -6q-19 -80 -69 -80z" />
    <glyph glyph-name="odieresis" unicode="&#xf6;" horiz-adv-x="542" 
d="M311 599v58h44v-58h-44zM187 599v58h44v-58h-44zM271 -10q-96 0 -158.5 75t-62.5 188v4q0 112 62.5 188t159.5 76q96 0 158.5 -75.5t62.5 -187.5v-4q0 -113 -62.5 -188.5t-159.5 -75.5zM272 19q81 0 134.5 67.5t53.5 166.5v4q0 99 -54 166.5t-135 67.5q-82 0 -135 -67
t-53 -166v-5q0 -99 54 -166.5t135 -67.5z" />
    <glyph glyph-name="divide" unicode="&#xf7;" horiz-adv-x="523" 
d="M237 500v63h49v-63h-49zM465 337h-407v30h407v-30zM237 141v63h49v-63h-49z" />
    <glyph glyph-name="oslash" unicode="&#xf8;" horiz-adv-x="542" 
d="M458 517h35l-60 -76q60 -76 60 -183v-4q0 -113 -63 -188.5t-159 -75.5q-85 0 -143 58l-44 -54h-34l59 76q-59 75 -59 183v4q0 113 63 188.5t159 75.5q81 0 142 -59zM272 19q82 0 135 67t53 167v4q0 93 -47 159l-267 -342q52 -55 126 -55zM82 254q0 -95 47 -159l267 341
q-53 56 -125 56q-82 0 -135.5 -67.5t-53.5 -166.5v-4z" />
    <glyph glyph-name="ugrave" unicode="&#xf9;" horiz-adv-x="528" 
d="M249 -10q-83 0 -129.5 54t-46.5 148v319h31v-314q0 -83 39 -130.5t111 -47.5q68 0 115 52.5t47 130.5v309h31v-511h-31v108q-17 -48 -60 -83t-107 -35zM252 586l-94 103l37 18l80 -121h-23z" />
    <glyph glyph-name="uacute" unicode="&#xfa;" horiz-adv-x="528" 
d="M246 586l80 121l36 -18l-94 -103h-22zM249 -10q-83 0 -129.5 54t-46.5 148v319h31v-314q0 -83 39 -130.5t111 -47.5q68 0 115 52.5t47 130.5v309h31v-511h-31v108q-17 -48 -60 -83t-107 -35z" />
    <glyph glyph-name="ucircumflex" unicode="&#xfb;" horiz-adv-x="528" 
d="M156 587l91 118h24l91 -118h-28l-76 83l-75 -83h-27zM249 -10q-83 0 -129.5 54t-46.5 148v319h31v-314q0 -83 39 -130.5t111 -47.5q68 0 115 52.5t47 130.5v309h31v-511h-31v108q-17 -48 -60 -83t-107 -35z" />
    <glyph glyph-name="udieresis" unicode="&#xfc;" horiz-adv-x="528" 
d="M299 596v58h44v-58h-44zM175 596v58h44v-58h-44zM249 -10q-83 0 -129.5 54t-46.5 148v319h31v-314q0 -83 39 -130.5t111 -47.5q68 0 115 52.5t47 130.5v309h31v-511h-31v108q-17 -48 -60 -83t-107 -35z" />
    <glyph glyph-name="yacute" unicode="&#xfd;" horiz-adv-x="495" 
d="M255 42l171 469h34l-193 -515q-32 -86 -64.5 -117.5t-79.5 -31.5q-42 0 -81 22l12 28q33 -21 70 -21q36 0 61.5 26.5t54.5 99.5l-204 509h34zM235 586l80 121l36 -18l-94 -103h-22z" />
    <glyph glyph-name="thorn" unicode="&#xfe;" horiz-adv-x="565" 
d="M80 -150v872h32v-343q23 61 70.5 101.5t114.5 40.5q88 0 149.5 -74.5t61.5 -188.5v-5q0 -114 -61.5 -188.5t-149.5 -74.5q-67 0 -115 40.5t-70 100.5v-281h-32zM295 19q79 0 130 65.5t51 167.5v5q0 101 -51.5 167.5t-129.5 66.5t-131.5 -67t-53.5 -166v-6
q0 -99 53.5 -166t131.5 -67z" />
    <glyph glyph-name="ydieresis" unicode="&#xff;" horiz-adv-x="495" 
d="M255 42l171 469h34l-193 -515q-32 -86 -64.5 -117.5t-79.5 -31.5q-42 0 -81 22l12 28q33 -21 70 -21q36 0 61.5 26.5t54.5 99.5l-204 509h34zM289 596v58h44v-58h-44zM165 596v58h44v-58h-44z" />
    <glyph glyph-name="Amacron" unicode="&#x100;" horiz-adv-x="658" 
d="M37 0l276 705h32l275 -705h-35l-79 205h-356l-79 -205h-34zM162 235h332l-166 426zM203 785v30h251v-30h-251z" />
    <glyph glyph-name="amacron" unicode="&#x101;" horiz-adv-x="491" 
d="M210 -10q-69 0 -117.5 42t-48.5 114v3q0 76 53 119.5t141 43.5q79 0 150 -26v50q0 74 -40 113t-113 39q-68 0 -139 -38l-12 27q79 41 153 41q88 0 136 -48q46 -46 46 -131v-339h-31v99q-20 -46 -66 -77.5t-112 -31.5zM212 19q75 0 125.5 48t50.5 114v75q-71 27 -150 27
q-75 0 -118 -35.5t-43 -97.5v-3q0 -59 38.5 -93.5t96.5 -34.5zM130 610v29h237v-29h-237z" />
    <glyph glyph-name="Abreve" unicode="&#x102;" horiz-adv-x="658" 
d="M37 0l276 705h32l275 -705h-35l-79 205h-356l-79 -205h-34zM162 235h332l-166 426zM328 763q-50 0 -81 23t-36 64h27q16 -57 90 -57t91 57h27q-6 -41 -37 -64t-81 -23z" />
    <glyph glyph-name="abreve" unicode="&#x103;" horiz-adv-x="491" 
d="M210 -10q-69 0 -117.5 42t-48.5 114v3q0 76 53 119.5t141 43.5q79 0 150 -26v50q0 74 -40 113t-113 39q-68 0 -139 -38l-12 27q79 41 153 41q88 0 136 -48q46 -46 46 -131v-339h-31v99q-20 -46 -66 -77.5t-112 -31.5zM212 19q75 0 125.5 48t50.5 114v75q-71 27 -150 27
q-75 0 -118 -35.5t-43 -97.5v-3q0 -59 38.5 -93.5t96.5 -34.5zM248 589q-49 0 -80 27t-36 73h25q17 -71 91 -71t91 71h25q-5 -46 -35.5 -73t-80.5 -27z" />
    <glyph glyph-name="Aogonek" unicode="&#x104;" horiz-adv-x="658" 
d="M631 -121v-23q-3 -1 -6 -1q-44 1 -69.5 18.5t-25.5 46.5q0 40 53 84l-77 201h-356l-79 -205h-34l276 705h32l275 -705h-10q-48 -41 -48 -76q0 -41 69 -45zM162 235h332l-166 426z" />
    <glyph glyph-name="aogonek" unicode="&#x105;" horiz-adv-x="491" 
d="M435 -121v-23q-3 -1 -6 -1q-44 1 -69.5 18.5t-25.5 46.5q0 42 54 85v94q-20 -46 -66 -77.5t-112 -31.5q-69 0 -117.5 42t-48.5 114v3q0 76 53 119.5t141 43.5q79 0 150 -26v50q0 74 -40 113t-113 39q-68 0 -139 -38l-12 27q79 41 153 41q88 0 136 -48q46 -46 46 -131
v-339h-5q-48 -41 -48 -76q0 -41 69 -45zM212 19q75 0 125.5 48t50.5 114v75q-71 27 -150 27q-75 0 -118 -35.5t-43 -97.5v-3q0 -59 38.5 -93.5t96.5 -34.5z" />
    <glyph glyph-name="Cacute" unicode="&#x106;" horiz-adv-x="603" 
d="M354 -9q-127 0 -209 99t-82 257v5q0 156 84 256.5t211 100.5q116 0 206 -85l-22 -24q-83 79 -185 79q-111 0 -186 -93t-75 -233v-5q0 -143 74 -235t185 -92q105 0 191 86l21 -23q-93 -93 -213 -93zM333 763l86 105l36 -18l-96 -87h-26z" />
    <glyph glyph-name="cacute" unicode="&#x107;" horiz-adv-x="468" 
d="M254 589l80 121l36 -18l-94 -103h-22zM270 -10q-94 0 -157 73t-63 189v5q0 114 64.5 189t157.5 75q88 0 156 -72l-20 -23q-63 65 -138 65q-78 0 -132.5 -66.5t-54.5 -167.5v-4q0 -103 54.5 -168.5t133.5 -65.5q77 1 139 69l21 -21q-68 -77 -161 -77z" />
    <glyph glyph-name="Cdotaccent" unicode="&#x10a;" horiz-adv-x="603" 
d="M324 774v56h48v-56h-48zM354 -9q-127 0 -209 99t-82 257v5q0 156 84 256.5t211 100.5q116 0 206 -85l-22 -24q-83 79 -185 79q-111 0 -186 -93t-75 -233v-5q0 -143 74 -235t185 -92q105 0 191 86l21 -23q-93 -93 -213 -93z" />
    <glyph glyph-name="cdotaccent" unicode="&#x10b;" horiz-adv-x="468" 
d="M270 -10q-94 0 -157 73t-63 189v5q0 114 64.5 189t157.5 75q88 0 156 -72l-20 -23q-63 65 -138 65q-78 0 -132.5 -66.5t-54.5 -167.5v-4q0 -103 54.5 -168.5t133.5 -65.5q77 1 139 69l21 -21q-68 -77 -161 -77zM245 599v58h46v-58h-46z" />
    <glyph glyph-name="Ccaron" unicode="&#x10c;" horiz-adv-x="603" 
d="M354 -9q-127 0 -209 99t-82 257v5q0 156 84 256.5t211 100.5q116 0 206 -85l-22 -24q-83 79 -185 79q-111 0 -186 -93t-75 -233v-5q0 -143 74 -235t185 -92q105 0 191 86l21 -23q-93 -93 -213 -93zM456 864l-94 -99h-28l-94 99h32l76 -68l77 68h31z" />
    <glyph glyph-name="ccaron" unicode="&#x10d;" horiz-adv-x="468" 
d="M371 708l-91 -118h-24l-91 118h28l76 -82l75 82h27zM270 -10q-94 0 -157 73t-63 189v5q0 114 64.5 189t157.5 75q88 0 156 -72l-20 -23q-63 65 -138 65q-78 0 -132.5 -66.5t-54.5 -167.5v-4q0 -103 54.5 -168.5t133.5 -65.5q77 1 139 69l21 -21q-68 -77 -161 -77z" />
    <glyph glyph-name="Dcaron" unicode="&#x10e;" horiz-adv-x="657" 
d="M90 0v700h175q147 0 238 -96t91 -250v-7q0 -154 -91 -250.5t-239 -96.5h-174zM263 670h-140v-640h140q134 0 215.5 88t81.5 228v7q0 140 -81.5 228.5t-215.5 88.5zM416 858l-94 -99h-28l-94 99h32l76 -68l77 68h31z" />
    <glyph glyph-name="dcaron" unicode="&#x10f;" horiz-adv-x="560" 
d="M534 574l14 148h35v-2l-32 -146h-17zM262 -10q-89 0 -149.5 73t-60.5 189v6q0 115 60.5 189t149.5 74q68 0 116 -40.5t71 -100.5v342h31v-722h-31v132q-23 -61 -71.5 -101.5t-115.5 -40.5zM264 19q79 0 132.5 67t53.5 166v6q0 99 -54 166t-132 67q-79 0 -129 -64.5
t-50 -168.5v-5q0 -102 50.5 -168t128.5 -66z" />
    <glyph glyph-name="Dcroat" unicode="&#x110;" horiz-adv-x="677" 
d="M110 0v337h-68v30h68v333h180q143 0 233.5 -96.5t90.5 -249.5v-7q0 -154 -90.5 -250.5t-234.5 -96.5h-179zM341 337h-198v-307h146q131 0 211.5 88t80.5 228v7q0 139 -81 228t-211 89h-146v-303h198v-30z" />
    <glyph glyph-name="dcroat" unicode="&#x111;" horiz-adv-x="561" 
d="M289 614v27h160v81h31v-81h63v-27h-63v-614h-31v132q-23 -61 -71 -101.5t-115 -40.5q-89 0 -150 74t-61 188v6q0 114 61.5 188.5t149.5 74.5q67 0 115 -40.5t71 -100.5v234h-160zM266 19q78 0 131.5 67t53.5 166v6q0 99 -54 166t-131 67q-79 0 -130 -65.5t-51 -167.5v-5
q0 -101 51.5 -167.5t129.5 -66.5z" />
    <glyph glyph-name="Emacron" unicode="&#x112;" horiz-adv-x="557" 
d="M172 779v30h251v-30h-251zM90 0v700h409v-30h-376v-302h341v-30h-341v-308h381v-30h-414z" />
    <glyph glyph-name="emacron" unicode="&#x113;" 
d="M270 -10q-93 0 -156.5 71.5t-63.5 191.5v3q0 117 59.5 191t147.5 74q92 0 145 -74.5t53 -187.5v-15h-372q3 -103 57 -164t132 -61q85 0 149 71l21 -20q-72 -80 -172 -80zM83 272h339q-3 92 -47 156t-119 64q-71 0 -120 -61.5t-53 -158.5zM138 610v29h237v-29h-237z" />
    <glyph glyph-name="Ebreve" unicode="&#x114;" horiz-adv-x="557" 
d="M297 757q-50 0 -81 23t-36 64h27q16 -57 90 -57t91 57h27q-6 -41 -37 -64t-81 -23zM90 0v700h409v-30h-376v-302h341v-30h-341v-308h381v-30h-414z" />
    <glyph glyph-name="ebreve" unicode="&#x115;" 
d="M270 -10q-93 0 -156.5 71.5t-63.5 191.5v3q0 117 59.5 191t147.5 74q92 0 145 -74.5t53 -187.5v-15h-372q3 -103 57 -164t132 -61q85 0 149 71l21 -20q-72 -80 -172 -80zM83 272h339q-3 92 -47 156t-119 64q-71 0 -120 -61.5t-53 -158.5zM256 589q-49 0 -80 27t-36 73h25
q17 -71 91 -71t91 71h25q-5 -46 -35.5 -73t-80.5 -27z" />
    <glyph glyph-name="Edotaccent" unicode="&#x116;" horiz-adv-x="557" 
d="M273 768v56h48v-56h-48zM90 0v700h409v-30h-376v-302h341v-30h-341v-308h381v-30h-414z" />
    <glyph glyph-name="edotaccent" unicode="&#x117;" 
d="M270 -10q-93 0 -156.5 71.5t-63.5 191.5v3q0 117 59.5 191t147.5 74q92 0 145 -74.5t53 -187.5v-15h-372q3 -103 57 -164t132 -61q85 0 149 71l21 -20q-72 -80 -172 -80zM83 272h339q-3 92 -47 156t-119 64q-71 0 -120 -61.5t-53 -158.5zM233 599v58h46v-58h-46z" />
    <glyph glyph-name="Eogonek" unicode="&#x118;" horiz-adv-x="557" 
d="M90 0v700h409v-30h-376v-302h341v-30h-341v-308h381v-30h-23q-48 -41 -48 -76q0 -41 69 -45v-23q-3 -1 -6 -1q-44 1 -69.5 18.5t-25.5 46.5q0 38 48 80h-359z" />
    <glyph glyph-name="eogonek" unicode="&#x119;" 
d="M421 90l21 -20q-16 -19 -56 -55q-58 -52 -58 -89q0 -43 70 -47v-23q-3 -1 -6 -1q-44 1 -69.5 18.5t-25.5 46.5q0 39 48 83q-35 -13 -75 -13q-93 0 -156.5 71.5t-63.5 191.5v3q0 117 59.5 191t147.5 74q92 0 145 -74.5t53 -187.5v-15h-372q3 -103 57 -164t132 -61
q85 0 149 71zM83 272h339q-3 92 -47 156t-119 64q-71 0 -120 -61.5t-53 -158.5z" />
    <glyph glyph-name="Ecaron" unicode="&#x11a;" horiz-adv-x="557" 
d="M405 858l-94 -99h-28l-94 99h32l76 -68l77 68h31zM90 0v700h409v-30h-376v-302h341v-30h-341v-308h381v-30h-414z" />
    <glyph glyph-name="ecaron" unicode="&#x11b;" 
d="M270 -10q-93 0 -156.5 71.5t-63.5 191.5v3q0 117 59.5 191t147.5 74q92 0 145 -74.5t53 -187.5v-15h-372q3 -103 57 -164t132 -61q85 0 149 71l21 -20q-72 -80 -172 -80zM83 272h339q-3 92 -47 156t-119 64q-71 0 -120 -61.5t-53 -158.5zM359 708l-91 -118h-24l-91 118
h28l76 -82l75 82h27z" />
    <glyph glyph-name="Gbreve" unicode="&#x11e;" horiz-adv-x="656" 
d="M352 763q-50 0 -81 23t-36 64h27q16 -57 90 -57t91 57h27q-6 -41 -37 -64t-81 -23zM366 -10q-138 0 -220.5 98t-82.5 258v6q0 154 84.5 256t216.5 102q112 0 199 -72l-21 -26q-80 68 -180 68q-114 0 -190 -94t-76 -233v-5q0 -148 75 -238t197 -90q104 0 180 65v238h-204
v31h236v-284q-95 -80 -214 -80z" />
    <glyph glyph-name="gbreve" unicode="&#x11f;" horiz-adv-x="556" 
d="M264 -152q-102 0 -191 59l17 27q79 -56 175 -56q84 0 132 46t48 135v102q-26 -54 -74 -91t-111 -37q-86 0 -147 69t-61 173v4q0 104 61 173t147 69q63 0 111 -36.5t74 -90.5v117h31v-454q0 -97 -55 -154q-57 -55 -157 -55zM262 63q76 0 130.5 61.5t54.5 149.5v4
q0 89 -54.5 151t-130.5 62q-75 0 -126 -60.5t-51 -151.5v-3q0 -91 51 -152t126 -61zM283 589q-49 0 -80 27t-36 73h25q17 -71 91 -71t91 71h25q-5 -46 -35.5 -73t-80.5 -27z" />
    <glyph glyph-name="Gdotaccent" unicode="&#x120;" horiz-adv-x="656" 
d="M328 774v56h48v-56h-48zM366 -10q-138 0 -220.5 98t-82.5 258v6q0 154 84.5 256t216.5 102q112 0 199 -72l-21 -26q-80 68 -180 68q-114 0 -190 -94t-76 -233v-5q0 -148 75 -238t197 -90q104 0 180 65v238h-204v31h236v-284q-95 -80 -214 -80z" />
    <glyph glyph-name="gdotaccent" unicode="&#x121;" horiz-adv-x="556" 
d="M264 -152q-102 0 -191 59l17 27q79 -56 175 -56q84 0 132 46t48 135v102q-26 -54 -74 -91t-111 -37q-86 0 -147 69t-61 173v4q0 104 61 173t147 69q63 0 111 -36.5t74 -90.5v117h31v-454q0 -97 -55 -154q-57 -55 -157 -55zM262 63q76 0 130.5 61.5t54.5 149.5v4
q0 89 -54.5 151t-130.5 62q-75 0 -126 -60.5t-51 -151.5v-3q0 -91 51 -152t126 -61zM260 599v58h46v-58h-46z" />
    <glyph glyph-name="Gcommaaccent" unicode="&#x122;" horiz-adv-x="656" 
d="M323 -195l-7 17q33 13 33 50h-20v56h45v-43q0 -63 -51 -80zM366 -10q-138 0 -220.5 98t-82.5 258v6q0 154 84.5 256t216.5 102q112 0 199 -72l-21 -26q-80 68 -180 68q-114 0 -190 -94t-76 -233v-5q0 -148 75 -238t197 -90q104 0 180 65v238h-204v31h236v-284
q-95 -80 -214 -80z" />
    <glyph glyph-name="gcommaaccent" unicode="&#x123;" horiz-adv-x="556" 
d="M309 724l7 -17q-33 -13 -33 -50h20v-56h-45v43q0 63 51 80zM264 -152q-102 0 -191 59l17 27q79 -56 175 -56q84 0 132 46t48 135v102q-26 -54 -74 -91t-111 -37q-86 0 -147 69t-61 173v4q0 104 61 173t147 69q63 0 111 -36.5t74 -90.5v117h31v-454q0 -97 -55 -154
q-57 -55 -157 -55zM262 63q76 0 130.5 61.5t54.5 149.5v4q0 89 -54.5 151t-130.5 62q-75 0 -126 -60.5t-51 -151.5v-3q0 -91 51 -152t126 -61z" />
    <glyph glyph-name="Hbar" unicode="&#x126;" horiz-adv-x="668" 
d="M32 534v28h68v138h33v-138h402v138h33v-138h68v-28h-68v-534h-33v336h-402v-336h-33v534h-68zM133 366h402v168h-402v-168z" />
    <glyph glyph-name="hbar" unicode="&#x127;" horiz-adv-x="528" 
d="M272 614h-160v-212q17 49 59.5 84t106.5 35q83 0 130 -55t47 -148v-318h-31v314q0 82 -39 130t-111 48q-68 0 -115 -52.5t-47 -130.5v-309h-32v614h-62v27h62v81h32v-81h160v-27z" />
    <glyph glyph-name="Imacron" unicode="&#x12a;" horiz-adv-x="226" 
d="M97 0v700h33v-700h-33zM-11 779v30h251v-30h-251z" />
    <glyph glyph-name="imacron" unicode="&#x12b;" horiz-adv-x="204" 
d="M86 0v511h32v-511h-32zM-16 610v29h237v-29h-237z" />
    <glyph glyph-name="Ibreve" unicode="&#x12c;" horiz-adv-x="226" 
d="M97 0v700h33v-700h-33zM114 757q-50 0 -81 23t-36 64h27q16 -57 90 -57t91 57h27q-6 -41 -37 -64t-81 -23z" />
    <glyph glyph-name="ibreve" unicode="&#x12d;" horiz-adv-x="204" 
d="M86 0v511h32v-511h-32zM102 589q-49 0 -80 27t-36 73h25q17 -71 91 -71t91 71h25q-5 -46 -35.5 -73t-80.5 -27z" />
    <glyph glyph-name="Iogonek" unicode="&#x12e;" horiz-adv-x="226" 
d="M148 -121v-23q-3 -1 -6 -1q-44 1 -69.5 18.5t-25.5 46.5q0 40 50 81v699h33v-700h-3q-48 -41 -48 -76q0 -41 69 -45z" />
    <glyph glyph-name="iogonek" unicode="&#x12f;" horiz-adv-x="204" 
d="M136 -121v-23q-3 -1 -6 -1q-44 1 -69.5 18.5t-25.5 46.5q0 40 51 82v509h32v-511h-3q-48 -41 -48 -76q0 -41 69 -45zM82 644v61h40v-61h-40z" />
    <glyph glyph-name="Idotaccent" unicode="&#x130;" horiz-adv-x="226" 
d="M97 0v700h33v-700h-33zM90 768v56h48v-56h-48z" />
    <glyph glyph-name="dotlessi" unicode="&#x131;" horiz-adv-x="204" 
d="M86 0v511h32v-511h-32z" />
    <glyph glyph-name="Kcommaaccent" unicode="&#x136;" horiz-adv-x="597" 
d="M272 -190l-7 17q33 13 33 50h-20v56h45v-43q0 -63 -51 -80zM90 0v700h33v-452l385 452h42l-260 -305l274 -395h-41l-255 368l-145 -165v-203h-33z" />
    <glyph glyph-name="kcommaaccent" unicode="&#x137;" horiz-adv-x="469" 
d="M215 -191l-7 17q33 13 33 50h-20v56h45v-43q0 -63 -51 -80zM80 0v722h32v-535l277 324h38l-192 -221l204 -290h-37l-187 265l-103 -119v-146h-32z" />
    <glyph glyph-name="Lacute" unicode="&#x139;" horiz-adv-x="499" 
d="M102 757l86 105l36 -18l-96 -87h-26zM90 0v700h33v-670h346v-30h-379z" />
    <glyph glyph-name="lacute" unicode="&#x13a;" horiz-adv-x="204" 
d="M88 767l86 105l36 -18l-96 -87h-26zM86 0v722h32v-722h-32z" />
    <glyph glyph-name="Lcommaaccent" unicode="&#x13b;" horiz-adv-x="499" 
d="M245 -193l-7 17q33 13 33 50h-20v56h45v-43q0 -63 -51 -80zM90 0v700h33v-670h346v-30h-379z" />
    <glyph glyph-name="lcommaaccent" unicode="&#x13c;" horiz-adv-x="204" 
d="M73 -193l-7 17q33 13 33 50h-20v56h45v-43q0 -63 -51 -80zM86 0v722h32v-722h-32z" />
    <glyph glyph-name="Lcaron" unicode="&#x13d;" horiz-adv-x="499" 
d="M217 552l14 148h35v-2l-32 -146h-17zM90 0v700h33v-670h346v-30h-379z" />
    <glyph glyph-name="lcaron" unicode="&#x13e;" horiz-adv-x="204" 
d="M173 574l14 148h35v-2l-32 -146h-17zM86 0v722h32v-722h-32z" />
    <glyph glyph-name="Ldot" unicode="&#x13f;" horiz-adv-x="499" 
d="M347 325v61h44v-61h-44zM90 0v700h33v-670h346v-30h-379z" />
    <glyph glyph-name="ldot" unicode="&#x140;" horiz-adv-x="231" 
d="M195 328v63h43v-63h-43zM86 0v722h32v-722h-32z" />
    <glyph glyph-name="Lslash" unicode="&#x141;" horiz-adv-x="520" 
d="M311 411l-167 -86v-295h346v-30h-379v307l-77 -41v35l77 39v360h33v-342l167 87v-34z" />
    <glyph glyph-name="lslash" unicode="&#x142;" horiz-adv-x="240" 
d="M208 401l-72 -43v-358h-32v339l-72 -42v34l72 42v349h32v-330l72 43v-34z" />
    <glyph glyph-name="Nacute" unicode="&#x143;" horiz-adv-x="669" 
d="M322 752l86 105l36 -18l-96 -87h-26zM90 0v700h31l426 -635v635h32v-700h-27l-430 643v-643h-32z" />
    <glyph glyph-name="nacute" unicode="&#x144;" horiz-adv-x="528" 
d="M253 589l80 121l36 -18l-94 -103h-22zM80 0v511h32v-109q17 49 60 84t107 35q82 0 129 -54.5t47 -147.5v-319h-31v313q0 84 -39 131.5t-111 47.5q-68 0 -115 -52.5t-47 -130.5v-309h-32z" />
    <glyph glyph-name="Ncommaaccent" unicode="&#x145;" horiz-adv-x="669" 
d="M308 -190l-7 17q33 13 33 50h-20v56h45v-43q0 -63 -51 -80zM90 0v700h31l426 -635v635h32v-700h-27l-430 643v-643h-32z" />
    <glyph glyph-name="ncommaaccent" unicode="&#x146;" horiz-adv-x="528" 
d="M237 -191l-7 17q33 13 33 50h-20v56h45v-43q0 -63 -51 -80zM80 0v511h32v-109q17 49 60 84t107 35q82 0 129 -54.5t47 -147.5v-319h-31v313q0 84 -39 131.5t-111 47.5q-68 0 -115 -52.5t-47 -130.5v-309h-32z" />
    <glyph glyph-name="Ncaron" unicode="&#x147;" horiz-adv-x="669" 
d="M445 853l-94 -99h-28l-94 99h32l76 -68l77 68h31zM90 0v700h31l426 -635v635h32v-700h-27l-430 643v-643h-32z" />
    <glyph glyph-name="ncaron" unicode="&#x148;" horiz-adv-x="528" 
d="M370 708l-91 -118h-24l-91 118h28l76 -82l75 82h27zM80 0v511h32v-109q17 49 60 84t107 35q82 0 129 -54.5t47 -147.5v-319h-31v313q0 84 -39 131.5t-111 47.5q-68 0 -115 -52.5t-47 -130.5v-309h-32z" />
    <glyph glyph-name="Omacron" unicode="&#x14c;" horiz-adv-x="706" 
d="M227 785v30h251v-30h-251zM353 -11q-129 0 -209.5 101.5t-80.5 256.5v6q0 155 81 256.5t209 101.5q129 0 210 -101.5t81 -256.5v-6q0 -155 -81 -256.5t-210 -101.5zM354 20q112 0 184 92.5t72 233.5v6q0 140 -72.5 234t-184.5 94t-184.5 -93t-72.5 -233v-6
q0 -141 73 -234.5t185 -93.5z" />
    <glyph glyph-name="omacron" unicode="&#x14d;" horiz-adv-x="542" 
d="M153 610v29h237v-29h-237zM271 -10q-96 0 -158.5 75t-62.5 188v4q0 112 62.5 188t159.5 76q96 0 158.5 -75.5t62.5 -187.5v-4q0 -113 -62.5 -188.5t-159.5 -75.5zM272 19q81 0 134.5 67.5t53.5 166.5v4q0 99 -54 166.5t-135 67.5q-82 0 -135 -67t-53 -166v-5
q0 -99 54 -166.5t135 -67.5z" />
    <glyph glyph-name="Obreve" unicode="&#x14e;" horiz-adv-x="706" 
d="M352 763q-50 0 -81 23t-36 64h27q16 -57 90 -57t91 57h27q-6 -41 -37 -64t-81 -23zM353 -11q-129 0 -209.5 101.5t-80.5 256.5v6q0 155 81 256.5t209 101.5q129 0 210 -101.5t81 -256.5v-6q0 -155 -81 -256.5t-210 -101.5zM354 20q112 0 184 92.5t72 233.5v6
q0 140 -72.5 234t-184.5 94t-184.5 -93t-72.5 -233v-6q0 -141 73 -234.5t185 -93.5z" />
    <glyph glyph-name="obreve" unicode="&#x14f;" horiz-adv-x="542" 
d="M271 -10q-96 0 -158.5 75t-62.5 188v4q0 112 62.5 188t159.5 76q96 0 158.5 -75.5t62.5 -187.5v-4q0 -113 -62.5 -188.5t-159.5 -75.5zM272 19q81 0 134.5 67.5t53.5 166.5v4q0 99 -54 166.5t-135 67.5q-82 0 -135 -67t-53 -166v-5q0 -99 54 -166.5t135 -67.5zM271 589
q-49 0 -80 27t-36 73h25q17 -71 91 -71t91 71h25q-5 -46 -35.5 -73t-80.5 -27z" />
    <glyph glyph-name="Ohungarumlaut" unicode="&#x150;" horiz-adv-x="706" 
d="M353 -11q-129 0 -209.5 101.5t-80.5 256.5v6q0 155 81 256.5t209 101.5q129 0 210 -101.5t81 -256.5v-6q0 -155 -81 -256.5t-210 -101.5zM354 20q112 0 184 92.5t72 233.5v6q0 140 -72.5 234t-184.5 94t-184.5 -93t-72.5 -233v-6q0 -141 73 -234.5t185 -93.5zM276 763
l86 105l35 -18l-95 -87h-26zM389 763l85 105l35 -18l-95 -87h-25z" />
    <glyph glyph-name="ohungarumlaut" unicode="&#x151;" horiz-adv-x="542" 
d="M304 589l80 121l35 -18l-92 -103h-23zM200 589l80 121l35 -18l-92 -103h-23zM271 -10q-96 0 -158.5 75t-62.5 188v4q0 112 62.5 188t159.5 76q96 0 158.5 -75.5t62.5 -187.5v-4q0 -113 -62.5 -188.5t-159.5 -75.5zM272 19q81 0 134.5 67.5t53.5 166.5v4q0 99 -54 166.5
t-135 67.5q-82 0 -135 -67t-53 -166v-5q0 -99 54 -166.5t135 -67.5z" />
    <glyph glyph-name="OE" unicode="&#x152;" horiz-adv-x="968" 
d="M385 0q-142 0 -232 98.5t-90 248.5v6q0 155 90 251t232 96h525v-30h-366v-302h331v-30h-331v-308h370v-30h-529zM386 30h125v640h-126q-128 0 -208.5 -87.5t-80.5 -228.5v-6q0 -139 81 -228.5t209 -89.5z" />
    <glyph glyph-name="oe" unicode="&#x153;" horiz-adv-x="910" 
d="M271 -10q-96 0 -158.5 75.5t-62.5 187.5v4q0 112 63 188t158 76q73 0 127.5 -45.5t75.5 -121.5q20 78 72 122.5t119 44.5q91 0 144.5 -75t53.5 -187q0 -13 -1 -15h-371q3 -103 57.5 -164t131.5 -61q88 0 149 68l20 -21q-71 -76 -170 -76q-71 0 -127 45t-77 124
q-21 -77 -76 -123t-128 -46zM491 272h339q-3 92 -47.5 156t-118.5 64q-72 0 -120.5 -61t-52.5 -159zM272 19q81 0 134.5 67.5t53.5 166.5v4q0 99 -54 166.5t-135 67.5q-82 0 -135 -67t-53 -166v-5q0 -99 54 -166.5t135 -67.5z" />
    <glyph glyph-name="Racute" unicode="&#x154;" horiz-adv-x="614" 
d="M90 0v700h220q122 0 185 -63q52 -54 52 -136v-1q0 -84 -51.5 -135t-139.5 -63l203 -302h-39l-200 297q-7 -1 -24 -1h-173v-296h-33zM123 326h173q106 0 162 46.5t56 126.5v1q0 81 -54.5 125.5t-151.5 44.5h-185v-344zM277 757l86 105l36 -18l-96 -87h-26z" />
    <glyph glyph-name="racute" unicode="&#x155;" horiz-adv-x="313" 
d="M80 0v511h32v-131q20 60 68.5 100t113.5 39v-33h-4q-76 0 -127 -61t-51 -148v-277h-32zM157 589l80 121l36 -18l-94 -103h-22z" />
    <glyph glyph-name="Rcommaaccent" unicode="&#x156;" horiz-adv-x="614" 
d="M264 -190l-7 17q33 13 33 50h-20v56h45v-43q0 -63 -51 -80zM90 0v700h220q122 0 185 -63q52 -54 52 -136v-1q0 -84 -51.5 -135t-139.5 -63l203 -302h-39l-200 297q-7 -1 -24 -1h-173v-296h-33zM123 326h173q106 0 162 46.5t56 126.5v1q0 81 -54.5 125.5t-151.5 44.5h-185
v-344z" />
    <glyph glyph-name="rcommaaccent" unicode="&#x157;" horiz-adv-x="313" 
d="M80 0v511h32v-131q20 60 68.5 100t113.5 39v-33h-4q-76 0 -127 -61t-51 -148v-277h-32zM71 -193l-7 17q33 13 33 50h-20v56h45v-43q0 -63 -51 -80z" />
    <glyph glyph-name="Rcaron" unicode="&#x158;" horiz-adv-x="614" 
d="M401 858l-94 -99h-28l-94 99h32l76 -68l77 68h31zM90 0v700h220q122 0 185 -63q52 -54 52 -136v-1q0 -84 -51.5 -135t-139.5 -63l203 -302h-39l-200 297q-7 -1 -24 -1h-173v-296h-33zM123 326h173q106 0 162 46.5t56 126.5v1q0 81 -54.5 125.5t-151.5 44.5h-185v-344z
" />
    <glyph glyph-name="rcaron" unicode="&#x159;" horiz-adv-x="313" 
d="M80 0v511h32v-131q20 60 68.5 100t113.5 39v-33h-4q-76 0 -127 -61t-51 -148v-277h-32zM275 708l-91 -118h-24l-91 118h28l76 -82l75 82h27z" />
    <glyph glyph-name="Sacute" unicode="&#x15a;" horiz-adv-x="543" 
d="M278 -9q-133 0 -233 100l23 24q91 -94 212 -94q77 0 125.5 42t48.5 106v2q0 58 -38.5 95.5t-144.5 74.5q-110 39 -155 82.5t-45 112.5v2q0 72 57.5 121.5t143.5 49.5q112 0 200 -75l-21 -26q-82 71 -181 71q-73 0 -119 -40.5t-46 -98.5v-2q0 -59 39 -95.5t143 -72.5
q112 -40 156 -85t44 -112v-2q0 -78 -58.5 -129t-150.5 -51zM265 763l86 105l36 -18l-96 -87h-26z" />
    <glyph glyph-name="sacute" unicode="&#x15b;" horiz-adv-x="423" 
d="M202 589l80 121l36 -18l-94 -103h-22zM211 -8q-100 0 -178 70l20 24q74 -65 160 -65q55 0 91.5 29.5t36.5 74.5v2q0 42 -31.5 67t-102.5 54q-80 32 -115.5 62t-35.5 80v1q0 55 43 91.5t111 36.5q85 0 156 -55l-19 -25q-66 50 -138 50q-54 0 -87.5 -27.5t-33.5 -68.5v-1
q0 -38 31 -62t101 -53q82 -34 117.5 -65t35.5 -84v-1q0 -59 -46 -97t-116 -38z" />
    <glyph glyph-name="Scedilla" unicode="&#x15e;" horiz-adv-x="543" 
d="M234 -131l-34 15l68 107q-129 4 -223 100l23 24q91 -94 212 -94q77 0 125.5 42t48.5 106v2q0 58 -38.5 95.5t-144.5 74.5q-110 39 -155 82.5t-45 112.5v2q0 72 57.5 121.5t143.5 49.5q112 0 200 -75l-21 -26q-82 71 -181 71q-73 0 -119 -40.5t-46 -98.5v-2
q0 -59 39 -95.5t143 -72.5q112 -40 156 -85t44 -112v-2q0 -75 -53.5 -125t-140.5 -54z" />
    <glyph glyph-name="scedilla" unicode="&#x15f;" horiz-adv-x="423" 
d="M164 -131l-34 15l68 108q-92 5 -165 70l20 24q74 -65 160 -65q55 0 91.5 29.5t36.5 74.5v2q0 42 -31.5 67t-102.5 54q-80 32 -115.5 62t-35.5 80v1q0 55 43 91.5t111 36.5q85 0 156 -55l-19 -25q-66 50 -138 50q-54 0 -87.5 -27.5t-33.5 -68.5v-1q0 -38 31 -62t101 -53
q82 -34 117.5 -65t35.5 -84v-1q0 -56 -42 -93t-107 -41z" />
    <glyph glyph-name="Scaron" unicode="&#x160;" horiz-adv-x="543" 
d="M278 -9q-133 0 -233 100l23 24q91 -94 212 -94q77 0 125.5 42t48.5 106v2q0 58 -38.5 95.5t-144.5 74.5q-110 39 -155 82.5t-45 112.5v2q0 72 57.5 121.5t143.5 49.5q112 0 200 -75l-21 -26q-82 71 -181 71q-73 0 -119 -40.5t-46 -98.5v-2q0 -59 39 -95.5t143 -72.5
q112 -40 156 -85t44 -112v-2q0 -78 -58.5 -129t-150.5 -51zM388 864l-94 -99h-28l-94 99h32l76 -68l77 68h31z" />
    <glyph glyph-name="scaron" unicode="&#x161;" horiz-adv-x="423" 
d="M318 708l-91 -118h-24l-91 118h28l76 -82l75 82h27zM211 -8q-100 0 -178 70l20 24q74 -65 160 -65q55 0 91.5 29.5t36.5 74.5v2q0 42 -31.5 67t-102.5 54q-80 32 -115.5 62t-35.5 80v1q0 55 43 91.5t111 36.5q85 0 156 -55l-19 -25q-66 50 -138 50q-54 0 -87.5 -27.5
t-33.5 -68.5v-1q0 -38 31 -62t101 -53q82 -34 117.5 -65t35.5 -84v-1q0 -59 -46 -97t-116 -38z" />
    <glyph glyph-name="Tcommaaccent" unicode="&#x162;" horiz-adv-x="508" 
d="M224 -193l-7 17q33 13 33 50h-20v56h45v-43q0 -63 -51 -80zM237 0v670h-207v30h448v-30h-208v-670h-33z" />
    <glyph glyph-name="tcommaaccent" unicode="&#x163;" horiz-adv-x="326" 
d="M159 -194l-7 17q33 13 33 50h-20v56h45v-43q0 -63 -51 -80zM221 -7q-55 0 -86.5 31t-31.5 91v367h-68v29h68v162h32v-162h149v-29h-149v-363q0 -97 89 -97q31 0 59 14v-31q-29 -12 -62 -12z" />
    <glyph glyph-name="Tcaron" unicode="&#x164;" horiz-adv-x="508" 
d="M362 858l-94 -99h-28l-94 99h32l76 -68l77 68h31zM237 0v670h-207v30h448v-30h-208v-670h-33z" />
    <glyph glyph-name="tcaron" unicode="&#x165;" horiz-adv-x="326" 
d="M228 574l14 148h35v-2l-32 -146h-17zM221 -7q-55 0 -86.5 31t-31.5 91v367h-68v29h68v162h32v-162h149v-29h-149v-363q0 -97 89 -97q31 0 59 14v-31q-29 -12 -62 -12z" />
    <glyph glyph-name="Umacron" unicode="&#x16a;" horiz-adv-x="645" 
d="M197 774v30h251v-30h-251zM322 -10q-110 0 -175 71.5t-65 202.5v436h32v-435q0 -118 56.5 -181.5t153.5 -63.5q96 0 151.5 62.5t55.5 180.5v437h33v-434q0 -132 -65.5 -204t-176.5 -72z" />
    <glyph glyph-name="umacron" unicode="&#x16b;" horiz-adv-x="528" 
d="M249 -10q-83 0 -129.5 54t-46.5 148v319h31v-314q0 -83 39 -130.5t111 -47.5q68 0 115 52.5t47 130.5v309h31v-511h-31v108q-17 -48 -60 -83t-107 -35zM141 607v29h237v-29h-237z" />
    <glyph glyph-name="Ubreve" unicode="&#x16c;" horiz-adv-x="645" 
d="M322 752q-50 0 -81 23t-36 64h27q16 -57 90 -57t91 57h27q-6 -41 -37 -64t-81 -23zM322 -10q-110 0 -175 71.5t-65 202.5v436h32v-435q0 -118 56.5 -181.5t153.5 -63.5q96 0 151.5 62.5t55.5 180.5v437h33v-434q0 -132 -65.5 -204t-176.5 -72z" />
    <glyph glyph-name="ubreve" unicode="&#x16d;" horiz-adv-x="528" 
d="M249 -10q-83 0 -129.5 54t-46.5 148v319h31v-314q0 -83 39 -130.5t111 -47.5q68 0 115 52.5t47 130.5v309h31v-511h-31v108q-17 -48 -60 -83t-107 -35zM259 585q-49 0 -80 27t-36 73h25q17 -71 91 -71t91 71h25q-5 -46 -35.5 -73t-80.5 -27z" />
    <glyph glyph-name="Uring" unicode="&#x16e;" horiz-adv-x="645" 
d="M322 -10q-110 0 -175 71.5t-65 202.5v436h32v-435q0 -118 56.5 -181.5t153.5 -63.5q96 0 151.5 62.5t55.5 180.5v437h33v-434q0 -132 -65.5 -204t-176.5 -72zM322 743q-40 0 -67 24t-27 60t27.5 60t66.5 24q40 0 67 -24t27 -60t-27 -60t-67 -24zM322 764q29 0 49 18
t20 45t-20 45t-49 18t-49 -18t-20 -45t20 -45t49 -18z" />
    <glyph glyph-name="uring" unicode="&#x16f;" horiz-adv-x="528" 
d="M259 577q-38 0 -64 25.5t-26 62.5t26 62.5t64 25.5t64.5 -25.5t26.5 -62.5t-26.5 -62.5t-64.5 -25.5zM259 597q29 0 48.5 19.5t19.5 48.5t-19.5 48.5t-48.5 19.5t-48.5 -19.5t-19.5 -48.5t19.5 -48.5t48.5 -19.5zM249 -10q-83 0 -129.5 54t-46.5 148v319h31v-314
q0 -83 39 -130.5t111 -47.5q68 0 115 52.5t47 130.5v309h31v-511h-31v108q-17 -48 -60 -83t-107 -35z" />
    <glyph glyph-name="Uhungarumlaut" unicode="&#x170;" horiz-adv-x="645" 
d="M322 -10q-110 0 -175 71.5t-65 202.5v436h32v-435q0 -118 56.5 -181.5t153.5 -63.5q96 0 151.5 62.5t55.5 180.5v437h33v-434q0 -132 -65.5 -204t-176.5 -72zM245 752l86 105l35 -18l-95 -87h-26zM358 752l85 105l35 -18l-95 -87h-25z" />
    <glyph glyph-name="uhungarumlaut" unicode="&#x171;" horiz-adv-x="528" 
d="M249 -10q-83 0 -129.5 54t-46.5 148v319h31v-314q0 -83 39 -130.5t111 -47.5q68 0 115 52.5t47 130.5v309h31v-511h-31v108q-17 -48 -60 -83t-107 -35zM292 586l80 121l35 -18l-92 -103h-23zM188 586l80 121l35 -18l-92 -103h-23z" />
    <glyph glyph-name="Uogonek" unicode="&#x172;" horiz-adv-x="645" 
d="M369 -121v-23q-3 -1 -6 -1q-44 1 -69.5 18.5t-25.5 46.5q0 34 37 71q-103 5 -163 76t-60 197v436h32v-435q0 -118 56.5 -181.5t153.5 -63.5q96 0 151.5 62.5t55.5 180.5v437h33v-434q0 -128 -61 -199.5t-166 -76.5q-37 -36 -37 -66q0 -41 69 -45z" />
    <glyph glyph-name="uogonek" unicode="&#x173;" horiz-adv-x="528" 
d="M249 -10q-83 0 -129.5 54t-46.5 148v319h31v-314q0 -83 39 -130.5t111 -47.5q68 0 115 52.5t47 130.5v309h31v-511h-4q-48 -41 -48 -76q0 -41 69 -45v-23q-3 -1 -6 -1q-44 1 -69.5 18.5t-25.5 46.5q0 42 53 84v104q-17 -48 -60 -83t-107 -35z" />
    <glyph glyph-name="Wcircumflex" unicode="&#x174;" horiz-adv-x="911" 
d="M246 -5l-203 705h35l183 -647l182 649h27l182 -649l183 647h33l-203 -705h-28l-181 642l-182 -642h-28zM347 759l94 99h28l94 -99h-32l-77 69l-76 -69h-31z" />
    <glyph glyph-name="wcircumflex" unicode="&#x175;" horiz-adv-x="719" 
d="M256 589l91 118h24l91 -118h-28l-76 83l-75 -83h-27zM197 -4l-155 515h33l135 -465l138 466h25l137 -466l135 465h33l-156 -515h-26l-136 460l-137 -460h-26z" />
    <glyph glyph-name="Ycircumflex" unicode="&#x176;" horiz-adv-x="575" 
d="M271 0v291l-249 409h38l228 -377l228 377h37l-249 -408v-292h-33zM179 754l94 99h28l94 -99h-32l-77 69l-76 -69h-31z" />
    <glyph glyph-name="ycircumflex" unicode="&#x177;" horiz-adv-x="495" 
d="M255 42l171 469h34l-193 -515q-32 -86 -64.5 -117.5t-79.5 -31.5q-42 0 -81 22l12 28q33 -21 70 -21q36 0 61.5 26.5t54.5 99.5l-204 509h34zM147 587l91 118h24l91 -118h-28l-76 83l-75 -83h-27z" />
    <glyph glyph-name="Ydieresis" unicode="&#x178;" horiz-adv-x="575" 
d="M271 0v291l-249 409h38l228 -377l228 377h37l-249 -408v-292h-33zM330 763v56h47v-56h-47zM197 763v56h47v-56h-47z" />
    <glyph glyph-name="Zacute" unicode="&#x179;" horiz-adv-x="571" 
d="M56 0v20l412 650h-397v30h441v-20l-412 -650h411v-30h-455zM275 757l86 105l36 -18l-96 -87h-26z" />
    <glyph glyph-name="zacute" unicode="&#x17a;" horiz-adv-x="437" 
d="M209 589l80 121l36 -18l-94 -103h-22zM40 0v18l314 465h-302v28h344v-18l-314 -465h314v-28h-356z" />
    <glyph glyph-name="Zdotaccent" unicode="&#x17b;" horiz-adv-x="571" 
d="M266 768v56h48v-56h-48zM56 0v20l412 650h-397v30h441v-20l-412 -650h411v-30h-455z" />
    <glyph glyph-name="zdotaccent" unicode="&#x17c;" horiz-adv-x="437" 
d="M40 0v18l314 465h-302v28h344v-18l-314 -465h314v-28h-356zM201 599v58h46v-58h-46z" />
    <glyph glyph-name="Zcaron" unicode="&#x17d;" horiz-adv-x="571" 
d="M398 858l-94 -99h-28l-94 99h32l76 -68l77 68h31zM56 0v20l412 650h-397v30h441v-20l-412 -650h411v-30h-455z" />
    <glyph glyph-name="zcaron" unicode="&#x17e;" horiz-adv-x="437" 
d="M327 708l-91 -118h-24l-91 118h28l76 -82l75 82h27zM40 0v18l314 465h-302v28h344v-18l-314 -465h314v-28h-356z" />
    <glyph glyph-name="Aringacute" unicode="&#x1fa;" horiz-adv-x="658" 
d="M37 0l263 672q-29 8 -47 30t-18 51q0 36 27 60t67 24q39 0 66 -24t27 -60q0 -29 -18 -50.5t-47 -29.5l263 -673h-35l-79 205h-356l-79 -205h-34zM162 235h332l-166 426zM328 690q29 0 49 18t20 45t-20 45t-49 18t-48.5 -18t-19.5 -45t19.5 -45t48.5 -18zM312 865l82 90
l34 -17l-89 -73h-27z" />
    <glyph glyph-name="aringacute" unicode="&#x1fb;" horiz-adv-x="491" 
d="M232 801l79 98l35 -18l-89 -80h-25zM210 -10q-69 0 -117.5 42t-48.5 114v3q0 76 53 119.5t141 43.5q79 0 150 -26v50q0 74 -40 113t-113 39q-68 0 -139 -38l-12 27q79 41 153 41q88 0 136 -48q46 -46 46 -131v-339h-31v99q-20 -46 -66 -77.5t-112 -31.5zM212 19
q75 0 125.5 48t50.5 114v75q-71 27 -150 27q-75 0 -118 -35.5t-43 -97.5v-3q0 -59 38.5 -93.5t96.5 -34.5zM247 590q-38 0 -64 25.5t-26 62.5t26 62.5t64 25.5t64.5 -25.5t26.5 -62.5t-26.5 -62.5t-64.5 -25.5zM247 610q29 0 48.5 20t19.5 48t-19.5 48t-48.5 20t-48.5 -20
t-19.5 -48t19.5 -48t48.5 -20z" />
    <glyph glyph-name="AEacute" unicode="&#x1fc;" horiz-adv-x="862" 
d="M495 757l86 105l36 -18l-96 -87h-26zM8 0l363 700h433v-30h-366v-302h331v-30h-331v-308h370v-30h-403v205h-257l-105 -205h-35zM164 235h241v435h-16z" />
    <glyph glyph-name="aeacute" unicode="&#x1fd;" horiz-adv-x="831" 
d="M213 -10q-73 0 -121 41.5t-48 114.5v3q0 76 52.5 119.5t139.5 43.5q73 0 146 -25q0 2 1 24t1 25q-1 75 -40.5 113.5t-112.5 38.5q-66 0 -135 -36l-12 28q78 38 149 38t116 -33t58 -97q25 62 72 97.5t107 35.5q92 0 145 -74.5t53 -187.5v-15h-371q3 -103 57 -164t131 -61
q89 0 150 68l20 -21q-71 -76 -171 -76q-60 0 -110 32t-78 90q-29 -52 -81 -87t-118 -35zM216 19q60 0 108 35t75 90q-16 47 -18 113q-67 26 -145 26q-73 0 -116 -35.5t-43 -97.5v-3q0 -60 38 -94t101 -34zM413 272h338q-2 92 -46.5 156t-119.5 64q-72 0 -120 -61t-52 -159z
M399 589l80 121l36 -18l-94 -103h-22z" />
    <glyph glyph-name="Oslashacute" unicode="&#x1fe;" horiz-adv-x="706" 
d="M607 706h36l-77 -101q78 -102 78 -252v-5q0 -155 -81 -257t-210 -102q-114 0 -193 82l-61 -77h-36l77 101q-77 101 -77 252v5q0 155 80.5 257t209.5 102q115 0 193 -83zM354 19q113 0 185 93t72 234v5q0 135 -65 227l-367 -480q71 -79 175 -79zM96 349q0 -137 64 -228
l367 480q-70 80 -174 80q-113 0 -185 -93t-72 -234v-5zM338 763l86 105l36 -18l-96 -87h-26z" />
    <glyph glyph-name="oslashacute" unicode="&#x1ff;" horiz-adv-x="542" 
d="M458 517h35l-60 -76q60 -76 60 -183v-4q0 -113 -63 -188.5t-159 -75.5q-85 0 -143 58l-44 -54h-34l59 76q-59 75 -59 183v4q0 113 63 188.5t159 75.5q81 0 142 -59zM272 19q82 0 135 67t53 167v4q0 93 -47 159l-267 -342q52 -55 126 -55zM82 254q0 -95 47 -159l267 341
q-53 56 -125 56q-82 0 -135.5 -67.5t-53.5 -166.5v-4zM258 589l80 121l36 -18l-94 -103h-22z" />
    <glyph glyph-name="Scommaaccent" unicode="&#x218;" horiz-adv-x="543" 
d="M246 -195l-7 17q33 13 33 50h-20v56h45v-43q0 -63 -51 -80zM278 -9q-133 0 -233 100l23 24q91 -94 212 -94q77 0 125.5 42t48.5 106v2q0 58 -38.5 95.5t-144.5 74.5q-110 39 -155 82.5t-45 112.5v2q0 72 57.5 121.5t143.5 49.5q112 0 200 -75l-21 -26q-82 71 -181 71
q-73 0 -119 -40.5t-46 -98.5v-2q0 -59 39 -95.5t143 -72.5q112 -40 156 -85t44 -112v-2q0 -78 -58.5 -129t-150.5 -51z" />
    <glyph glyph-name="scommaaccent" unicode="&#x219;" horiz-adv-x="423" 
d="M185 -194l-7 17q33 13 33 50h-20v56h45v-43q0 -63 -51 -80zM211 -8q-100 0 -178 70l20 24q74 -65 160 -65q55 0 91.5 29.5t36.5 74.5v2q0 42 -31.5 67t-102.5 54q-80 32 -115.5 62t-35.5 80v1q0 55 43 91.5t111 36.5q85 0 156 -55l-19 -25q-66 50 -138 50
q-54 0 -87.5 -27.5t-33.5 -68.5v-1q0 -38 31 -62t101 -53q82 -34 117.5 -65t35.5 -84v-1q0 -59 -46 -97t-116 -38z" />
    <glyph glyph-name="schwa" unicode="&#x259;" 
d="M229 520q93 0 156.5 -71.5t63.5 -191.5v-3q0 -117 -59.5 -191t-147.5 -74q-92 0 -145 74.5t-53 187.5v15h372q-3 103 -57 164t-132 61q-85 0 -149 -71l-21 20q72 80 172 80zM416 238h-339q3 -92 47 -156t119 -64q71 0 120 61.5t53 158.5z" />
    <glyph glyph-name="circumflex" unicode="&#x2c6;" 
d="M148 590l91 118h24l91 -118h-28l-76 83l-75 -83h-27z" />
    <glyph glyph-name="caron" unicode="&#x2c7;" 
d="M354 708l-91 -118h-24l-91 118h28l76 -82l75 82h27z" />
    <glyph glyph-name="breve" unicode="&#x2d8;" 
d="M251 589q-49 0 -80 27t-36 73h25q17 -71 91 -71t91 71h25q-5 -46 -35.5 -73t-80.5 -27z" />
    <glyph glyph-name="dotaccent" unicode="&#x2d9;" 
d="M228 599v58h46v-58h-46z" />
    <glyph glyph-name="ring" unicode="&#x2da;" 
d="M251 590q-38 0 -64 25.5t-26 62.5t26 62.5t64 25.5t64.5 -25.5t26.5 -62.5t-26.5 -62.5t-64.5 -25.5zM251 610q29 0 48.5 20t19.5 48t-19.5 48t-48.5 20t-48.5 -20t-19.5 -48t19.5 -48t48.5 -20z" />
    <glyph glyph-name="ogonek" unicode="&#x2db;" 
d="M311 -121v-23q-3 -1 -6 -1q-44 1 -69.5 18.5t-25.5 46.5q0 43 62 91l20 -9q-50 -43 -50 -78q0 -41 69 -45z" />
    <glyph glyph-name="tilde" unicode="&#x2dc;" 
d="M307 595q-21 0 -60 26q-35 25 -53 25q-29 0 -46 -55l-22 6q20 80 69 80q21 0 61 -27q36 -24 52 -24q30 0 46 55l22 -6q-19 -80 -69 -80z" />
    <glyph glyph-name="hungarumlaut" unicode="&#x2dd;" 
d="M242 589l80 121l35 -18l-92 -103h-23zM138 589l80 121l35 -18l-92 -103h-23z" />
    <glyph glyph-name="commaaccent" unicode="&#x326;" 
d="M224 -193l-7 17q33 13 33 50h-20v56h45v-43q0 -63 -51 -80z" />
    <glyph glyph-name="Wgrave" unicode="&#x1e80;" horiz-adv-x="911" 
d="M470 757h-26l-96 87l36 18zM246 -5l-203 705h35l183 -647l182 649h27l182 -649l183 647h33l-203 -705h-28l-181 642l-182 -642h-28z" />
    <glyph glyph-name="wgrave" unicode="&#x1e81;" horiz-adv-x="719" 
d="M197 -4l-155 515h33l135 -465l138 466h25l137 -466l135 465h33l-156 -515h-26l-136 460l-137 -460h-26zM350 589l-94 103l37 18l80 -121h-23z" />
    <glyph glyph-name="Wacute" unicode="&#x1e82;" horiz-adv-x="911" 
d="M440 757l86 105l36 -18l-96 -87h-26zM246 -5l-203 705h35l183 -647l182 649h27l182 -649l183 647h33l-203 -705h-28l-181 642l-182 -642h-28z" />
    <glyph glyph-name="wacute" unicode="&#x1e83;" horiz-adv-x="719" 
d="M345 589l80 121l36 -18l-94 -103h-22zM197 -4l-155 515h33l135 -465l138 466h25l137 -466l135 465h33l-156 -515h-26l-136 460l-137 -460h-26z" />
    <glyph glyph-name="Wdieresis" unicode="&#x1e84;" horiz-adv-x="911" 
d="M498 768v56h47v-56h-47zM365 768v56h47v-56h-47zM246 -5l-203 705h35l183 -647l182 649h27l182 -649l183 647h33l-203 -705h-28l-181 642l-182 -642h-28z" />
    <glyph glyph-name="wdieresis" unicode="&#x1e85;" horiz-adv-x="719" 
d="M399 599v58h44v-58h-44zM275 599v58h44v-58h-44zM197 -4l-155 515h33l135 -465l138 466h25l137 -466l135 465h33l-156 -515h-26l-136 460l-137 -460h-26z" />
    <glyph glyph-name="Ygrave" unicode="&#x1ef2;" horiz-adv-x="575" 
d="M271 0v291l-249 409h38l228 -377l228 377h37l-249 -408v-292h-33zM303 752h-26l-96 87l36 18z" />
    <glyph glyph-name="ygrave" unicode="&#x1ef3;" horiz-adv-x="495" 
d="M255 42l171 469h34l-193 -515q-32 -86 -64.5 -117.5t-79.5 -31.5q-42 0 -81 22l12 28q33 -21 70 -21q36 0 61.5 26.5t54.5 99.5l-204 509h34zM241 586l-94 103l37 18l80 -121h-23z" />
    <glyph glyph-name="enspace" unicode="&#x2002;" horiz-adv-x="500" 
 />
    <glyph glyph-name="emspace" unicode="&#x2003;" horiz-adv-x="1000" 
 />
    <glyph glyph-name="threeperemspace" unicode="&#x2004;" horiz-adv-x="333" 
 />
    <glyph glyph-name="fourperemspace" unicode="&#x2005;" horiz-adv-x="250" 
 />
    <glyph glyph-name="thinspace" unicode="&#x2009;" horiz-adv-x="123" 
 />
    <glyph glyph-name="hairspace" unicode="&#x200a;" horiz-adv-x="67" 
 />
    <glyph glyph-name="endash" unicode="&#x2013;" horiz-adv-x="490" 
d="M61 281v31h368v-31h-368z" />
    <glyph glyph-name="emdash" unicode="&#x2014;" horiz-adv-x="794" 
d="M61 281v31h672v-31h-672z" />
    <glyph glyph-name="quoteleft" unicode="&#x2018;" horiz-adv-x="167" 
d="M60 551v59q0 40 12 60.5t41 32.5l9 -18q-40 -19 -37 -69h20v-65h-45z" />
    <glyph glyph-name="quoteright" unicode="&#x2019;" horiz-adv-x="167" 
d="M55 549l-9 18q39 18 36 68h-20v65h46v-58q0 -40 -12 -60.5t-41 -32.5z" />
    <glyph glyph-name="quotesinglbase" unicode="&#x201a;" horiz-adv-x="167" 
d="M53 -87l-9 18q40 19 37 69h-21v65h47v-59q0 -40 -12.5 -60.5t-41.5 -32.5z" />
    <glyph glyph-name="quotedblleft" unicode="&#x201c;" horiz-adv-x="286" 
d="M178 551v59q0 40 12 60.5t41 32.5l9 -18q-38 -19 -37 -69h21v-65h-46zM60 551v59q0 40 12 60.5t41 32.5l9 -18q-40 -19 -37 -69h20v-65h-45z" />
    <glyph glyph-name="quotedblright" unicode="&#x201d;" horiz-adv-x="286" 
d="M173 549l-9 18q38 17 37 68h-21v65h46v-58q0 -40 -12 -60.5t-41 -32.5zM55 549l-9 18q39 18 36 68h-20v65h46v-58q0 -40 -12 -60.5t-41 -32.5z" />
    <glyph glyph-name="quotedblbase" unicode="&#x201e;" horiz-adv-x="286" 
d="M171 -87l-9 18q40 19 37 69h-20v65h46v-59q0 -40 -12.5 -60.5t-41.5 -32.5zM53 -87l-9 18q40 19 37 69h-21v65h47v-59q0 -40 -12.5 -60.5t-41.5 -32.5z" />
    <glyph glyph-name="dagger" unicode="&#x2020;" horiz-adv-x="348" 
d="M158 238l6 293l-112 -7v31l112 -6l-7 151h34l-7 -151l112 6v-31l-112 7l6 -293h-32z" />
    <glyph glyph-name="daggerdbl" unicode="&#x2021;" horiz-adv-x="357" 
d="M161 0l7 151l-112 -6v31l112 -7l-5 181l5 181l-112 -7v31l112 -6l-7 151h34l-6 -151l111 6v-31l-112 7l6 -181l-6 -181l112 7v-31l-111 6l6 -151h-34z" />
    <glyph glyph-name="bullet" unicode="&#x2022;" horiz-adv-x="403" 
d="M200 245q-42 0 -71 30t-29 75v6q0 46 29.5 75.5t70.5 29.5q43 0 72 -29.5t29 -75.5v-6q0 -45 -29 -75t-72 -30z" />
    <glyph glyph-name="ellipsis" unicode="&#x2026;" horiz-adv-x="507" 
d="M400 0v64h46v-64h-46zM230 0v64h46v-64h-46zM61 0v64h46v-64h-46z" />
    <glyph glyph-name="perthousand" unicode="&#x2030;" horiz-adv-x="1041" 
d="M184 384q46 0 75.5 41t29.5 104v4q0 63 -30 104.5t-76 41.5t-75.5 -41t-29.5 -104v-3q0 -63 30.5 -105t75.5 -42zM183 356q-60 0 -98 50t-38 124v4q0 73 38.5 123t98.5 50t98 -50t38 -123v-4q0 -74 -38 -124t-99 -50zM596 700l-232 -358l-219 -342h-32l229 356l221 344
h33zM525 21q46 0 75.5 41t29.5 104v3q0 64 -30 105.5t-76 41.5t-75 -41.5t-29 -103.5v-4q0 -63 30 -104.5t75 -41.5zM524 -7q-59 0 -97.5 49.5t-38.5 123.5v4q0 74 38.5 124t98.5 50t98.5 -50t38.5 -124v-4q0 -74 -38.5 -123.5t-99.5 -49.5zM859 21q46 0 75 41t29 104v3
q0 64 -30 105.5t-76 41.5q-45 0 -74.5 -41.5t-29.5 -103.5v-4q0 -64 30 -105t76 -41zM858 -7q-60 0 -98.5 49.5t-38.5 123.5v4q0 74 38.5 124t98.5 50q61 0 99 -50t38 -124v-4q0 -74 -38.5 -123.5t-98.5 -49.5z" />
    <glyph glyph-name="guilsinglleft" unicode="&#x2039;" horiz-adv-x="269" 
d="M193 45l-152 207v6l152 207l23 -14l-139 -195l139 -197z" />
    <glyph glyph-name="guilsinglright" unicode="&#x203a;" horiz-adv-x="269" 
d="M76 45l-23 14l139 196l-139 196l23 14l152 -207v-6z" />
    <glyph glyph-name="Euro" unicode="&#x20ac;" horiz-adv-x="606" 
d="M553 605l-24 -19q-66 93 -164 93q-77 0 -131.5 -61.5t-74.5 -164.5h256v-29h-261q-4 -31 -4 -72v-5q0 -43 3 -62h262v-29h-258q18 -109 75 -172t137 -63q96 0 163 100l23 -18q-76 -112 -187 -112q-93 0 -159 70t-85 195h-83v29h79q-2 19 -2 61v6q0 40 4 72h-81v29h86
q21 116 84 186t154 70q113 0 188 -104z" />
    <glyph glyph-name="published" unicode="&#x2117;" horiz-adv-x="733" 
d="M366 -12q-136 0 -228.5 104t-92.5 252v12q0 148 92.5 252t229.5 104q136 0 228.5 -103.5t92.5 -251.5v-13q0 -148 -93 -252t-229 -104zM366 9q128 0 214 98t86 237v13q0 139 -85.5 236.5t-213.5 97.5t-214 -98t-86 -237v-12q0 -139 85.5 -237t213.5 -98zM270 167v373h107
q60 0 96 -30.5t36 -85.5v-2q0 -56 -38 -87.5t-98 -32.5h-75v-135h-28zM298 329h76q49 0 78 24t29 68v1q0 45 -28 68t-77 23h-78v-184z" />
    <glyph glyph-name="servicemark" unicode="&#x2120;" horiz-adv-x="601" 
d="M300 390v310h25l103 -183l104 183h24v-310h-22v268l-104 -183h-4l-103 183v-268h-23zM137 385q-60 0 -107 45l14 17q43 -41 94 -41q31 0 51 17t20 43q0 23 -16 38.5t-61 32.5q-49 19 -69.5 38t-20.5 51q0 34 26.5 56.5t66.5 22.5q50 0 92 -34l-13 -18q-39 31 -80 31
q-30 0 -49.5 -16.5t-19.5 -40.5q0 -23 16.5 -38t60.5 -31q49 -19 69.5 -39.5t20.5 -51.5q0 -36 -27 -59t-68 -23z" />
    <glyph glyph-name="trademark" unicode="&#x2122;" horiz-adv-x="576" 
d="M276 390v310h24l104 -183l104 183h24v-310h-23v268l-104 -183h-3l-104 183v-268h-22zM105 390v288h-88v22h199v-22h-88v-288h-23z" />
    <glyph glyph-name="minus" unicode="&#x2212;" horiz-adv-x="523" 
d="M465 337h-407v30h407v-30z" />
    <glyph glyph-name="Q.alt" horiz-adv-x="708" 
d="M620 -96l-125 125q-63 -40 -142 -40q-129 0 -209.5 101.5t-80.5 256.5v6q0 155 81 256.5t209 101.5q129 0 210 -101.5t81 -256.5v-6q0 -94 -32.5 -172t-89.5 -126l140 -143v-2h-42zM354 20q112 0 184 92.5t72 233.5v6q0 140 -72.5 234t-184.5 94t-184.5 -93t-72.5 -233
v-6q0 -141 73 -234.5t185 -93.5z" />
    <glyph glyph-name="a.alt" horiz-adv-x="560" 
d="M262 -10q-89 0 -149.5 73t-60.5 189v6q0 115 60.5 189t149.5 74q68 0 116 -40.5t71 -100.5v131h31v-511h-31v132q-23 -61 -71.5 -101.5t-115.5 -40.5zM264 19q79 0 132.5 67t53.5 166v6q0 99 -54 166t-132 67q-79 0 -129 -64.5t-50 -168.5v-5q0 -102 50.5 -168t128.5 -66
z" />
    <glyph glyph-name="aacute.alt" horiz-adv-x="560" 
d="M269 589l80 121l36 -18l-94 -103h-22zM262 -10q-89 0 -149.5 73t-60.5 189v6q0 115 60.5 189t149.5 74q68 0 116 -40.5t71 -100.5v131h31v-511h-31v132q-23 -61 -71.5 -101.5t-115.5 -40.5zM264 19q79 0 132.5 67t53.5 166v6q0 99 -54 166t-132 67q-79 0 -129 -64.5
t-50 -168.5v-5q0 -102 50.5 -168t128.5 -66z" />
    <glyph glyph-name="abreve.alt" horiz-adv-x="560" 
d="M262 -10q-89 0 -149.5 73t-60.5 189v6q0 115 60.5 189t149.5 74q68 0 116 -40.5t71 -100.5v131h31v-511h-31v132q-23 -61 -71.5 -101.5t-115.5 -40.5zM264 19q79 0 132.5 67t53.5 166v6q0 99 -54 166t-132 67q-79 0 -129 -64.5t-50 -168.5v-5q0 -102 50.5 -168t128.5 -66
zM283 589q-49 0 -80 27t-36 73h25q17 -71 91 -71t91 71h25q-5 -46 -35.5 -73t-80.5 -27z" />
    <glyph glyph-name="acircumflex.alt" horiz-adv-x="560" 
d="M180 590l91 118h24l91 -118h-28l-76 83l-75 -83h-27zM262 -10q-89 0 -149.5 73t-60.5 189v6q0 115 60.5 189t149.5 74q68 0 116 -40.5t71 -100.5v131h31v-511h-31v132q-23 -61 -71.5 -101.5t-115.5 -40.5zM264 19q79 0 132.5 67t53.5 166v6q0 99 -54 166t-132 67
q-79 0 -129 -64.5t-50 -168.5v-5q0 -102 50.5 -168t128.5 -66z" />
    <glyph glyph-name="adieresis.alt" horiz-adv-x="560" 
d="M323 599v58h44v-58h-44zM199 599v58h44v-58h-44zM262 -10q-89 0 -149.5 73t-60.5 189v6q0 115 60.5 189t149.5 74q68 0 116 -40.5t71 -100.5v131h31v-511h-31v132q-23 -61 -71.5 -101.5t-115.5 -40.5zM264 19q79 0 132.5 67t53.5 166v6q0 99 -54 166t-132 67
q-79 0 -129 -64.5t-50 -168.5v-5q0 -102 50.5 -168t128.5 -66z" />
    <glyph glyph-name="agrave.alt" horiz-adv-x="560" 
d="M262 -10q-89 0 -149.5 73t-60.5 189v6q0 115 60.5 189t149.5 74q68 0 116 -40.5t71 -100.5v131h31v-511h-31v132q-23 -61 -71.5 -101.5t-115.5 -40.5zM264 19q79 0 132.5 67t53.5 166v6q0 99 -54 166t-132 67q-79 0 -129 -64.5t-50 -168.5v-5q0 -102 50.5 -168t128.5 -66
zM275 589l-94 103l37 18l80 -121h-23z" />
    <glyph glyph-name="amacron.alt" horiz-adv-x="560" 
d="M262 -10q-89 0 -149.5 73t-60.5 189v6q0 115 60.5 189t149.5 74q68 0 116 -40.5t71 -100.5v131h31v-511h-31v132q-23 -61 -71.5 -101.5t-115.5 -40.5zM264 19q79 0 132.5 67t53.5 166v6q0 99 -54 166t-132 67q-79 0 -129 -64.5t-50 -168.5v-5q0 -102 50.5 -168t128.5 -66
zM165 610v29h237v-29h-237z" />
    <glyph glyph-name="aogonek.alt" horiz-adv-x="560" 
d="M497 -121v-23q-3 -1 -6 -1q-44 1 -69.5 18.5t-25.5 46.5q0 42 53 84v128q-23 -61 -71.5 -101.5t-115.5 -40.5q-89 0 -149.5 73t-60.5 189v6q0 115 60.5 189t149.5 74q68 0 116 -40.5t71 -100.5v131h31v-511h-4q-48 -41 -48 -76q0 -41 69 -45zM264 19q79 0 132.5 67
t53.5 166v6q0 99 -54 166t-132 67q-79 0 -129 -64.5t-50 -168.5v-5q0 -102 50.5 -168t128.5 -66z" />
    <glyph glyph-name="aring.alt" horiz-adv-x="560" 
d="M283 590q-38 0 -64 25.5t-26 62.5t26 62.5t64 25.5t64.5 -25.5t26.5 -62.5t-26.5 -62.5t-64.5 -25.5zM283 610q29 0 48.5 20t19.5 48t-19.5 48t-48.5 20t-48.5 -20t-19.5 -48t19.5 -48t48.5 -20zM262 -10q-89 0 -149.5 73t-60.5 189v6q0 115 60.5 189t149.5 74
q68 0 116 -40.5t71 -100.5v131h31v-511h-31v132q-23 -61 -71.5 -101.5t-115.5 -40.5zM264 19q79 0 132.5 67t53.5 166v6q0 99 -54 166t-132 67q-79 0 -129 -64.5t-50 -168.5v-5q0 -102 50.5 -168t128.5 -66z" />
    <glyph glyph-name="aring.alt2" horiz-adv-x="491" 
d="M210 -10q-70 0 -118 42t-48 114v3q0 76 53 119.5t140 43.5q78 0 151 -26v51q0 73 -40 112t-113 39q-68 0 -138 -37l-13 27q56 29 109 37q-37 25 -37 71q0 36 26.5 62t64.5 26q37 0 63.5 -26t26.5 -62q0 -50 -41 -75q46 -11 77 -41q46 -46 46 -131v-339h-31v99
q-20 -46 -66 -77.5t-112 -31.5zM212 19q75 0 125.5 48t50.5 114v75q-71 27 -150 27q-75 0 -118 -35.5t-43 -97.5v-3q0 -59 38.5 -93.5t96.5 -34.5zM247 517q28 0 47.5 20t19.5 49q0 28 -19.5 47.5t-47.5 19.5t-47.5 -19.5t-19.5 -47.5q0 -29 19.5 -49t47.5 -20z" />
    <glyph glyph-name="aringacute.alt" horiz-adv-x="560" 
d="M269 801l79 98l35 -18l-90 -80h-24zM283 590q-38 0 -64 25.5t-26 62.5t26 62.5t64 25.5t64.5 -25.5t26.5 -62.5t-26.5 -62.5t-64.5 -25.5zM283 610q29 0 48.5 20t19.5 48t-19.5 48t-48.5 20t-48.5 -20t-19.5 -48t19.5 -48t48.5 -20zM262 -10q-89 0 -149.5 73t-60.5 189v6
q0 115 60.5 189t149.5 74q68 0 116 -40.5t71 -100.5v131h31v-511h-31v132q-23 -61 -71.5 -101.5t-115.5 -40.5zM264 19q79 0 132.5 67t53.5 166v6q0 99 -54 166t-132 67q-79 0 -129 -64.5t-50 -168.5v-5q0 -102 50.5 -168t128.5 -66z" />
    <glyph glyph-name="aringacute.alt2" horiz-adv-x="491" 
d="M232 709l79 98l35 -18l-89 -80h-25zM210 -10q-70 0 -118 42t-48 114v3q0 76 53 119.5t140 43.5q78 0 151 -26v51q0 73 -40 112t-113 39q-68 0 -138 -37l-13 27q56 29 109 37q-37 25 -37 71q0 36 26.5 62t64.5 26q37 0 63.5 -26t26.5 -62q0 -50 -41 -75q46 -11 77 -41
q46 -46 46 -131v-339h-31v99q-20 -46 -66 -77.5t-112 -31.5zM212 19q75 0 125.5 48t50.5 114v75q-71 27 -150 27q-75 0 -118 -35.5t-43 -97.5v-3q0 -59 38.5 -93.5t96.5 -34.5zM247 517q28 0 47.5 20t19.5 49q0 28 -19.5 47.5t-47.5 19.5t-47.5 -19.5t-19.5 -47.5
q0 -29 19.5 -49t47.5 -20z" />
    <glyph glyph-name="atilde.alt" horiz-adv-x="560" 
d="M262 -10q-89 0 -149.5 73t-60.5 189v6q0 115 60.5 189t149.5 74q68 0 116 -40.5t71 -100.5v131h31v-511h-31v132q-23 -61 -71.5 -101.5t-115.5 -40.5zM264 19q79 0 132.5 67t53.5 166v6q0 99 -54 166t-132 67q-79 0 -129 -64.5t-50 -168.5v-5q0 -102 50.5 -168t128.5 -66
zM340 595q-21 0 -60 26q-35 25 -53 25q-29 0 -46 -55l-22 6q20 80 69 80q21 0 61 -27q36 -24 52 -24q30 0 46 55l22 -6q-19 -80 -69 -80z" />
    <glyph glyph-name="three.alt" horiz-adv-x="488" 
d="M231 -11q-125 0 -204 99l25 22q70 -91 180 -91q75 0 125 45.5t50 118.5v2q0 74 -54 115.5t-147 41.5h-49v30h50q83 0 135 45t52 115v2q0 64 -45 105.5t-116 41.5q-99 0 -168 -91l-24 19q76 102 193 102q86 0 140 -50.5t54 -124.5v-2q0 -68 -40.5 -113.5t-101.5 -60.5
q69 -15 112 -59.5t43 -115.5v-1q0 -84 -60 -139.5t-150 -55.5z" />
    <glyph glyph-name="registered.alt" horiz-adv-x="733" 
d="M366 -12q-136 0 -228.5 104t-92.5 252v12q0 148 92.5 252t229.5 104q136 0 228.5 -103.5t92.5 -251.5v-13q0 -148 -93 -252t-229 -104zM366 9q128 0 214 98t86 237v13q0 139 -85.5 236.5t-213.5 97.5t-214 -98t-86 -237v-12q0 -139 85.5 -237t213.5 -98zM252 173v372h124
q66 0 99 -36q27 -27 27 -71v-2q0 -42 -25 -69.5t-67 -35.5l104 -158h-34l-100 153q-6 -1 -17 -1h-82v-152h-29zM281 351h91q47 0 74 22t27 61v3q0 39 -26.5 60t-72.5 21h-93v-167z" />
    <glyph glyph-name="NUL" horiz-adv-x="0" 
 />
    <glyph glyph-name="hfjslug" horiz-adv-x="696" 
d="M645 -200h-208l-8 14h-163l-8 -14h-207v303q13 0 22.5 9.5t9.5 22.5t-9.5 22.5t-22.5 9.5v554h100l30 79h334l29 -79h101v-921zM401 563v-172h15v78h38v14h-38v66h43v14h-58zM185 563v-172h15v79h47v-79h15v172h-15v-79h-47v79h-15zM461 394q10 -4 21 -4q31 0 31 36v137
h-16v-137q0 -22 -16 -22q-7 0 -20 5v-15zM372 465l-13 3q-4 -18 -8 -30h-1l-16 31q23 21 23 42q0 31 -27 31q-12 0 -20 -9t-8 -22t14 -39q-23 -18 -23 -47q0 -16 8 -26.5t21 -10.5q19 0 29 24h1l12 -24l12 6l-17 32q6 14 13 39zM524 323v-46h8v12l8 8l15 -20h10l-20 26
l18 20h-10l-20 -24h-1v24h-8zM489 292l10 -15h9l-12 17q10 4 10 14q0 15 -17 15h-20v-46h8v15h12zM427 276q10 0 17 7t7 17q0 9 -7 16.5t-17 7.5t-17 -7.5t-7 -16.5q0 -10 7 -17t17 -7zM371 301l-13 22h-9l18 -29v-17h8v17l18 29h-9zM194 323v-46h34v7h-26v13h23v7h-23v12
h26v7h-34zM133 323v-46h8v32l25 -32h7v46h-8v-32l-25 32h-7zM242 323l14 -47h8l11 34h1l11 -34h8l14 47h-8l-10 -35h-1l-11 35h-7l-11 -35h-1l-10 35h-8zM328 479q-12 22 -12 32q0 19 14 19q13 0 13 -19q0 -15 -15 -32zM343 423q-8 -21 -20 -21q-16 0 -16 25q0 19 16 35z
M488 299h-11v17h11q10 0 10 -8q0 -9 -10 -9zM427 283q-16 0 -16 17q0 6 4.5 11.5t11.5 5.5t11.5 -5.5t4.5 -11.5q0 -17 -16 -17z" />
    <glyph glyph-name="i.dot" horiz-adv-x="204" 
d="M82 644v61h40v-61h-40zM86 0v511h32v-511h-32z" />
    <glyph glyph-name="caron.alt" 
d="M218 574l14 148h35v-2l-32 -146h-17z" />
    <glyph glyph-name="acute.cap" 
d="M199 757l86 105l36 -18l-96 -87h-26z" />
    <glyph glyph-name="hungarumlaut.cap" 
d="M131 757l86 105l35 -18l-95 -87h-26zM244 757l85 105l35 -18l-95 -87h-25z" />
    <glyph glyph-name="grave.cap" 
d="M303 757h-26l-96 87l36 18z" />
    <glyph glyph-name="circumflex.cap" 
d="M143 759l94 99h28l94 -99h-32l-77 69l-76 -69h-31z" />
    <glyph glyph-name="caron.cap" 
d="M359 858l-94 -99h-28l-94 99h32l76 -68l77 68h31z" />
    <glyph glyph-name="breve.cap" 
d="M251 757q-50 0 -81 23t-36 64h27q16 -57 90 -57t91 57h27q-6 -41 -37 -64t-81 -23z" />
    <glyph glyph-name="tilde.cap" 
d="M310 763q-16 0 -64 24q-40 22 -52 22q-29 0 -47 -49l-23 5q20 74 69 74q20 0 64 -25q38 -20 52 -20q16 0 26.5 11t20.5 38l22 -6q-19 -74 -68 -74z" />
    <glyph glyph-name="macron.cap" 
d="M126 779v30h251v-30h-251z" />
    <glyph glyph-name="dieresis.cap" 
d="M294 768v56h47v-56h-47zM161 768v56h47v-56h-47z" />
    <glyph glyph-name="dotaccent.cap" 
d="M227 768v56h48v-56h-48z" />
    <glyph glyph-name="ring.cap" 
d="M251 758q-40 0 -67 24t-27 60t27.5 60t66.5 24q40 0 67 -24t27 -60t-27 -60t-67 -24zM251 779q29 0 49 18t20 45t-20 45t-49 18t-49 -18t-20 -45t20 -45t49 -18z" />
    </font>
</defs>
</svg>
